<?xml version="1.0" encoding="UTF-8"?>
<svg version="1.1" xmlns="http://www.w3.org/2000/svg" width="243" height="225">
<path d="M0 0 C2.79915998 0.52955373 2.79915998 0.52955373 6.125 0.4375 C9.6875 0.4375 9.6875 0.4375 12.87890625 0.90625 C16.98947077 1.47962105 21.04594123 1.73746049 25.1875 1.9375 C29.21686019 2.13212026 33.17154253 2.36337816 37.16796875 2.9375 C42.03714436 3.62923638 46.90130505 3.81887825 51.81054688 4.04296875 C57.47991071 4.33370536 57.47991071 4.33370536 59.6875 5.4375 C62.48175565 5.60186798 65.26569894 5.71874792 68.0625 5.8125 C76.56562497 6.16379767 84.98110002 6.92822748 93.4375 7.875 C110.61273645 9.79047987 127.79333061 11.41569066 145.06665039 12.09619141 C150.58381645 12.33381645 150.58381645 12.33381645 151.6875 13.4375 C151.78290675 15.77113828 151.81302395 18.07503255 151.80102539 20.4090271 C151.80117425 21.1468878 151.80132311 21.88474851 151.80147648 22.64496863 C151.8007778 25.13622486 151.79291663 27.62740882 151.78515625 30.11865234 C151.7832386 31.89716043 151.78177408 33.67566905 151.7807312 35.45417786 C151.77756182 39.29346074 151.77128066 43.13272182 151.76266479 46.97199631 C151.74918874 53.03859039 151.74325798 59.10517711 151.73852539 65.17178345 C151.72645735 79.14802343 151.70441427 93.12424446 151.68229675 107.1004715 C151.66213851 119.90062561 151.64406111 132.70077334 151.63408184 145.50093997 C151.62908803 151.5356191 151.61921096 157.57026493 151.60565186 163.60493064 C151.59820859 167.35588953 151.59487982 171.10684378 151.5926857 174.85780907 C151.59080862 176.6013396 151.58719766 178.34486922 151.58175278 180.08839226 C151.57456911 182.46295171 151.57349757 184.83743719 151.57397461 187.21200562 C151.56858217 188.25426711 151.56858217 188.25426711 151.56308079 189.3175844 C151.56955747 192.3140583 151.73088657 194.56765972 152.6875 197.4375 C152.84305595 201.63751072 152.5315705 205.33772901 151.6875 209.4375 C152.0175 209.7675 152.3475 210.0975 152.6875 210.4375 C152.72842937 212.77047433 152.72991723 215.10455225 152.6875 217.4375 C152.0275 217.4375 151.3675 217.4375 150.6875 217.4375 C150.6875 219.4175 150.6875 221.3975 150.6875 223.4375 C150.0275 223.4375 149.3675 223.4375 148.6875 223.4375 C147.54743434 217.54716074 147.33738498 211.69591885 147.08203125 205.71875 C146.9896662 201.44208449 146.9896662 201.44208449 145.6875 197.4375 C145.43482371 195.64235408 145.23267646 193.83999537 145.05493164 192.03588867 C144.94133804 190.90257614 144.82774445 189.76926361 144.71070862 188.60160828 C144.59090134 187.36538223 144.47109406 186.12915619 144.34765625 184.85546875 C144.15712929 182.93677727 144.15712929 182.93677727 143.9627533 180.97932434 C143.62298727 177.55672714 143.28804902 174.13367345 142.95404053 170.71051025 C142.62146784 167.31126519 142.28409993 163.91249678 141.94726562 160.51367188 C140.89747239 149.90191574 139.8567716 139.28946975 138.86485291 128.6721344 C138.01057076 119.54005881 137.02774109 110.43155027 135.94161987 101.3243103 C134.50900027 89.27788401 133.28252625 77.25173397 132.41064453 65.1496582 C131.63591469 54.84782184 130.20904095 44.65211157 128.6875 34.4375 C116.07787819 31.30876892 103.50625164 28.54741875 90.6875 26.4375 C88.51987594 26.06807423 86.35305998 25.69383897 84.1875 25.3125 C83.3315625 25.16554688 82.475625 25.01859375 81.59375 24.8671875 C79.6875 24.4375 79.6875 24.4375 78.6875 23.4375 C76.95377845 23.10475036 75.21057709 22.82113484 73.46484375 22.55859375 C66.66035701 21.47064076 59.96855839 20.02328251 53.25 18.5 C52.12529297 18.24798828 51.00058594 17.99597656 49.84179688 17.73632812 C43.06029963 16.21331525 36.28717969 14.65578534 29.51831055 13.07763672 C26.99762166 12.50762842 24.47550865 11.98600778 21.9375 11.5 C16.55885706 10.4595412 11.24343665 9.16296179 5.92675781 7.84594727 C1.87385207 6.86490177 -2.0901534 6.18354431 -6.24349976 5.72291565 C-8.55330171 5.40428175 -10.7918811 4.92429705 -13.06494141 4.40600586 C-14.26324081 4.13438881 -14.26324081 4.13438881 -15.48574829 3.85728455 C-16.38999039 3.6494912 -16.38999039 3.6494912 -17.3125 3.4375 C-17.31157821 4.53671154 -17.31065641 5.63592308 -17.30970669 6.76844406 C-17.2875259 33.49117967 -17.27108316 60.21391409 -17.26068783 86.93665695 C-17.25552736 99.85946733 -17.24848937 112.78227164 -17.23706055 125.70507812 C-17.22710613 136.96608333 -17.22064476 148.22708413 -17.21841151 159.48809361 C-17.21710569 165.45295204 -17.21402796 171.41779788 -17.20676994 177.38265228 C-17.19999781 182.99349301 -17.19788549 188.60431594 -17.19939232 194.21516037 C-17.19911653 196.27755454 -17.19711847 198.33994929 -17.19329453 200.40233994 C-17.1883387 203.21232016 -17.18950876 206.02223265 -17.19224548 208.83221436 C-17.18933264 209.65322592 -17.1864198 210.47423749 -17.18341869 211.3201282 C-17.19296687 214.93314875 -17.42963241 217.90602966 -18.3125 221.4375 C-37.7825 221.4375 -57.2525 221.4375 -77.3125 221.4375 C-78.0848457 217.57577149 -78.43962615 214.61714451 -78.44621277 210.75820923 C-78.45047775 209.62554123 -78.45474274 208.49287323 -78.45913696 207.32588196 C-78.45845718 205.47581795 -78.45845718 205.47581795 -78.45776367 203.58837891 C-78.46112228 202.2821608 -78.4644809 200.97594269 -78.46794128 199.63014221 C-78.4767605 196.05363137 -78.47911852 192.47714446 -78.47975707 188.9006238 C-78.48046873 186.66411752 -78.48260525 184.42761729 -78.48525429 182.19111252 C-78.4945007 174.38293828 -78.49859004 166.57478109 -78.49780273 158.76660156 C-78.49720207 151.49743305 -78.50775347 144.22833878 -78.5235464 136.95918906 C-78.53663735 130.71019474 -78.54198598 124.46122465 -78.54134732 118.21221673 C-78.5410928 114.48352914 -78.54391872 110.75490756 -78.55452538 107.02623367 C-78.5660373 102.86590782 -78.56145002 98.70574757 -78.55541992 94.54541016 C-78.56103943 93.31608261 -78.56665894 92.08675507 -78.57244873 90.82017517 C-78.54071404 82.20795984 -78.22100757 76.10597865 -72.3125 69.4375 C-70.80427549 67.46459364 -69.30456201 65.48515784 -67.8125 63.5 C-67.0596875 62.50097656 -66.306875 61.50195312 -65.53125 60.47265625 C-63.98277242 58.35440436 -62.55632359 56.26695056 -61.15625 54.05859375 C-60.5478125 53.19363281 -59.939375 52.32867187 -59.3125 51.4375 C-58.6525 51.4375 -57.9925 51.4375 -57.3125 51.4375 C-57.044375 50.695 -56.77625 49.9525 -56.5 49.1875 C-55.35973249 46.54688051 -54.21869694 44.58197156 -52.3125 42.4375 C-51.6525 42.4375 -50.9925 42.4375 -50.3125 42.4375 C-50.23257813 41.89351562 -50.15265625 41.34953125 -50.0703125 40.7890625 C-49.03931449 37.58978002 -47.24952524 35.46167819 -45.1875 32.8125 C-44.36952761 31.75381236 -43.55314474 30.69389489 -42.73828125 29.6328125 C-42.3304541 29.10204102 -41.92262695 28.57126953 -41.50244141 28.02441406 C-39.11496191 24.84045495 -36.92597568 21.51591733 -34.72265625 18.203125 C-34.25730469 17.62046875 -33.79195312 17.0378125 -33.3125 16.4375 C-32.6525 16.4375 -31.9925 16.4375 -31.3125 16.4375 C-31.065 15.73625 -30.8175 15.035 -30.5625 14.3125 C-29.14069762 11.04235452 -27.44003712 8.296378 -25.3125 5.4375 C-24.6525 5.4375 -23.9925 5.4375 -23.3125 5.4375 C-23.10625 4.65375 -22.9 3.87 -22.6875 3.0625 C-21.3125 0.4375 -21.3125 0.4375 -18.9375 -0.9375 C-12.59634957 -2.0308018 -6.30632009 -1.07088454 0 0 Z " fill="#050505" transform="translate(87.3125,1.5625)"/>
<path d="M0 0 C2.79915998 0.52955373 2.79915998 0.52955373 6.125 0.4375 C9.6875 0.4375 9.6875 0.4375 12.87890625 0.90625 C16.98947077 1.47962105 21.04594123 1.73746049 25.1875 1.9375 C29.21686019 2.13212026 33.17154253 2.36337816 37.16796875 2.9375 C42.03714436 3.62923638 46.90130505 3.81887825 51.81054688 4.04296875 C57.47991071 4.33370536 57.47991071 4.33370536 59.6875 5.4375 C62.48175565 5.60186798 65.26569894 5.71874792 68.0625 5.8125 C76.56562497 6.16379767 84.98110002 6.92822748 93.4375 7.875 C110.61273645 9.79047987 127.79333061 11.41569066 145.06665039 12.09619141 C150.58381645 12.33381645 150.58381645 12.33381645 151.6875 13.4375 C151.78290675 15.77113828 151.81302395 18.07503255 151.80102539 20.4090271 C151.80117425 21.1468878 151.80132311 21.88474851 151.80147648 22.64496863 C151.8007778 25.13622486 151.79291663 27.62740882 151.78515625 30.11865234 C151.7832386 31.89716043 151.78177408 33.67566905 151.7807312 35.45417786 C151.77756182 39.29346074 151.77128066 43.13272182 151.76266479 46.97199631 C151.74918874 53.03859039 151.74325798 59.10517711 151.73852539 65.17178345 C151.72645735 79.14802343 151.70441427 93.12424446 151.68229675 107.1004715 C151.66213851 119.90062561 151.64406111 132.70077334 151.63408184 145.50093997 C151.62908803 151.5356191 151.61921096 157.57026493 151.60565186 163.60493064 C151.59820859 167.35588953 151.59487982 171.10684378 151.5926857 174.85780907 C151.59080862 176.6013396 151.58719766 178.34486922 151.58175278 180.08839226 C151.57456911 182.46295171 151.57349757 184.83743719 151.57397461 187.21200562 C151.56858217 188.25426711 151.56858217 188.25426711 151.56308079 189.3175844 C151.56955747 192.3140583 151.73088657 194.56765972 152.6875 197.4375 C152.84305595 201.63751072 152.5315705 205.33772901 151.6875 209.4375 C152.0175 209.7675 152.3475 210.0975 152.6875 210.4375 C152.72842937 212.77047433 152.72991723 215.10455225 152.6875 217.4375 C152.0275 217.4375 151.3675 217.4375 150.6875 217.4375 C150.6875 219.4175 150.6875 221.3975 150.6875 223.4375 C150.0275 223.4375 149.3675 223.4375 148.6875 223.4375 C147.54743434 217.54716074 147.33738498 211.69591885 147.08203125 205.71875 C146.9896662 201.44208449 146.9896662 201.44208449 145.6875 197.4375 C145.43482371 195.64235408 145.23267646 193.83999537 145.05493164 192.03588867 C144.94133804 190.90257614 144.82774445 189.76926361 144.71070862 188.60160828 C144.59090134 187.36538223 144.47109406 186.12915619 144.34765625 184.85546875 C144.15712929 182.93677727 144.15712929 182.93677727 143.9627533 180.97932434 C143.62298727 177.55672714 143.28804902 174.13367345 142.95404053 170.71051025 C142.62146784 167.31126519 142.28409993 163.91249678 141.94726562 160.51367188 C140.89747239 149.90191574 139.8567716 139.28946975 138.86485291 128.6721344 C138.01057076 119.54005881 137.02774109 110.43155027 135.94161987 101.3243103 C134.50900027 89.27788401 133.28252625 77.25173397 132.41064453 65.1496582 C131.63591469 54.84782184 130.20904095 44.65211157 128.6875 34.4375 C116.07787819 31.30876892 103.50625164 28.54741875 90.6875 26.4375 C88.51987594 26.06807423 86.35305998 25.69383897 84.1875 25.3125 C82.90359375 25.09207031 82.90359375 25.09207031 81.59375 24.8671875 C79.6875 24.4375 79.6875 24.4375 78.6875 23.4375 C76.95377845 23.10475036 75.21057709 22.82113484 73.46484375 22.55859375 C66.66035701 21.47064076 59.96855839 20.02328251 53.25 18.5 C52.12529297 18.24798828 51.00058594 17.99597656 49.84179688 17.73632812 C43.06029963 16.21331525 36.28717969 14.65578534 29.51831055 13.07763672 C26.99762166 12.50762842 24.47550865 11.98600778 21.9375 11.5 C16.55885706 10.4595412 11.24343665 9.16296179 5.92675781 7.84594727 C1.18563021 6.69831094 -3.46806313 6.00684619 -8.3125 5.4375 C-9.98500672 5.11202639 -11.65357328 4.76381095 -13.3125 4.375 C-14.075625 4.19839844 -14.83875 4.02179687 -15.625 3.83984375 C-16.181875 3.70707031 -16.73875 3.57429687 -17.3125 3.4375 C-17.6425 4.4275 -17.9725 5.4175 -18.3125 6.4375 C-18.6425 4.7875 -18.9725 3.1375 -19.3125 1.4375 C-20.6325 2.7575 -21.9525 4.0775 -23.3125 5.4375 C-22.6875 3.0625 -22.6875 3.0625 -21.3125 0.4375 C-15.05653566 -3.18437409 -6.80343071 -1.15529955 0 0 Z " fill="#191919" transform="translate(87.3125,1.5625)"/>
<path d="M0 0 C2.475 0.495 2.475 0.495 5 1 C5.33 2.32 5.66 3.64 6 5 C6.66 4.34 7.32 3.68 8 3 C8.99 3 9.98 3 11 3 C11 2.34 11 1.68 11 1 C11.556875 1.28875 12.11375 1.5775 12.6875 1.875 C15.08494645 3.0413253 17.51596939 4.0339881 20 5 C20.125 10.75 20.125 10.75 19 13 C20.98 12.67 22.96 12.34 25 12 C25.625 14.375 25.625 14.375 26 17 C25.34 17.66 24.68 18.32 24 19 C25.98 19.99 27.96 20.98 30 22 C29.814375 22.9075 29.62875 23.815 29.4375 24.75 C29.04265379 27.68314324 29.05308428 29.2644657 30 32 C27.525 32.495 27.525 32.495 25 33 C25.495 36.96 25.495 36.96 26 41 C21.25 42.125 21.25 42.125 19 41 C19.33 41.66 19.66 42.32 20 43 C20.4375 45.875 20.4375 45.875 20 49 C17.08371813 51.64499984 15.31240823 53.03052112 11.3125 52.9375 C8.89844667 51.95882973 7.6469315 50.99365392 6 49 C5.67 50.65 5.34 52.3 5 54 C3.35 54 1.7 54 0 54 C-0.66 52.68 -1.32 51.36 -2 50 C-2.598125 50.495 -3.19625 50.99 -3.8125 51.5 C-6 53 -6 53 -9 53 C-9.33 52.34 -9.66 51.68 -10 51 C-12.52733235 50.34444881 -12.52733235 50.34444881 -15 50 C-16.10844919 46.67465243 -15.84454356 44.37817425 -15 41 C-17.97 41.495 -17.97 41.495 -21 42 C-21.495 40.515 -21.495 40.515 -22 39 C-20.5625 36.8125 -20.5625 36.8125 -19 35 C-19.804375 34.773125 -20.60875 34.54625 -21.4375 34.3125 C-24 33 -24 33 -24.8125 30.75 C-25.01215539 27.82172095 -25.06823587 24.93414257 -25 22 C-23.68 22 -22.36 22 -21 22 C-21 21.34 -21 20.68 -21 20 C-20.01 20 -19.02 20 -18 20 C-18 19.34 -18 18.68 -18 18 C-19.32 17.67 -20.64 17.34 -22 17 C-21.67 15.68 -21.34 14.36 -21 13 C-18.92446352 12.4465236 -17.15634036 12 -15 12 C-15 9.69 -15 7.38 -15 5 C-13.68 5 -12.36 5 -11 5 C-10.34 3.68 -9.68 2.36 -9 1 C-6.08482708 2.07401108 -4.22189824 2.77810176 -2 5 C-1.34 3.35 -0.68 1.7 0 0 Z M9 10 C9 10.66 9 11.32 9 12 C8.01 12.33 7.02 12.66 6 13 C6.33 13.99 6.66 14.98 7 16 C9.50447516 17.21869929 9.50447516 17.21869929 12 18 C13.65376711 16.34623289 13.63471208 14.19051636 14.0625 11.9375 C14.23910156 11.01839844 14.41570312 10.09929687 14.59765625 9.15234375 C14.73042969 8.44207031 14.86320312 7.73179688 15 7 C12.20091867 7 11.07277627 8.2035939 9 10 Z M-9 8 C-8.67 10.97 -8.34 13.94 -8 17 C-5.69 16.34 -3.38 15.68 -1 15 C-1.99 14.67 -2.98 14.34 -4 14 C-4.144375 13.360625 -4.28875 12.72125 -4.4375 12.0625 C-4.7159375 11.0415625 -4.7159375 11.0415625 -5 10 C-6.32 9.34 -7.64 8.68 -9 8 Z M-1 21 C0 23 0 23 0 23 Z M0 23 C-0.33 23.99 -0.66 24.98 -1 26 C-1.66 26.66 -2.32 27.32 -3 28 C-2.34 28 -1.68 28 -1 28 C-1.33 29.65 -1.66 31.3 -2 33 C1.465 32.505 1.465 32.505 5 32 C5 30.35 5 28.7 5 27 C5.66 26.67 6.32 26.34 7 26 C6.67 24.68 6.34 23.36 6 22 C3.77431099 22 2.09993221 22.25486277 0 23 Z M15 23 C15 25.64 15 28.28 15 31 C18.63 30.01 22.26 29.02 26 28 C23.13888288 25.13888288 21.7184603 24.2084996 18 23 C17.01 23 16.02 23 15 23 Z M-15.5625 25 C-16.38878906 25.37125 -17.21507813 25.7425 -18.06640625 26.125 C-18.70449219 26.41375 -19.34257813 26.7025 -20 27 C-17.06171403 29.50298434 -14.82097239 30.46930939 -11 31 C-10.67 28.36 -10.34 25.72 -10 23 C-11.95742008 23 -13.81263691 24.21132931 -15.5625 25 Z M-8 36 C-8.66 39.96 -9.32 43.92 -10 48 C-8.700625 47.05125 -7.40125 46.1025 -6.0625 45.125 C-4.96615234 44.32449219 -4.96615234 44.32449219 -3.84765625 43.5078125 C-1.88901765 42.11987896 -1.88901765 42.11987896 -1 40 C-4.09327895 37.02324541 -4.09327895 37.02324541 -8 36 Z M6 39 C7.50223584 43.20626034 10.28550034 44.73900021 14 47 C14.29562367 41.67829506 14.29562367 41.67829506 12 37 C8.81509993 36.7226499 8.81509993 36.7226499 6 39 Z " fill="#9DB6C7" transform="translate(131,74)"/>
<path d="M0 0 C3.90866756 2.0846227 5.19317512 4.13051087 6.5625 8.1875 C6.74941406 8.88230469 6.93632812 9.57710937 7.12890625 10.29296875 C7.86674011 12.22264402 7.86674011 12.22264402 10.08984375 12.73828125 C10.72019531 12.82464844 11.35054687 12.91101563 12 13 C12 13.99 12 14.98 12 16 C10.35 16 8.7 16 7 16 C7 18.31 7 20.62 7 23 C8.65 23 10.3 23 12 23 C12 23.99 12 24.98 12 26 C10.35 26 8.7 26 7 26 C7 27.98 7 29.96 7 32 C8.65 32.33 10.3 32.66 12 33 C12 33.99 12 34.98 12 36 C10.35 36 8.7 36 7 36 C7 38.31 7 40.62 7 43 C8.65 43.33 10.3 43.66 12 44 C12 44.99 12 45.98 12 47 C9.525 47.495 9.525 47.495 7 48 C7 49.65 7 51.3 7 53 C8.65 53.33 10.3 53.66 12 54 C12 54.99 12 55.98 12 57 C9.525 57.495 9.525 57.495 7 58 C7.33 60.64 7.66 63.28 8 66 C8.66 66 9.32 66 10 66 C12.82417533 70.78197018 12.51440341 75.59876418 12 81 C10.30106982 85.20261675 7.6864981 87.41945133 4 90 C-0.07047347 91.35682449 -3.74391717 91.52472254 -8 91 C-12.9710149 88.46759618 -16.49430567 85.01138866 -19 80 C-19.23828125 77.86328125 -19.23828125 77.86328125 -19.3125 75.3125 C-19.34988281 74.48363281 -19.38726562 73.65476562 -19.42578125 72.80078125 C-19 70 -19 70 -16.9921875 66.8203125 C-14.18417146 62.20139737 -14.6090535 57.8251887 -14.8125 52.5625 C-14.85096084 50.44278691 -14.88453892 48.3229814 -14.9140625 46.203125 C-14.93243164 45.05908203 -14.95080078 43.91503906 -14.96972656 42.73632812 C-15.02046081 36.47474007 -14.90537374 30.2196957 -14.74057007 23.9604187 C-14.70536023 22.5353617 -14.67602565 21.11014669 -14.65274048 19.68484497 C-14.61955081 17.6711319 -14.56599677 15.65778627 -14.51171875 13.64453125 C-14.48553467 12.48284424 -14.45935059 11.32115723 -14.43237305 10.12426758 C-13.95410781 6.66838938 -13.08112162 4.77779557 -11 2 C-7.29266085 -0.47155943 -4.29905063 -0.65621517 0 0 Z M-6.66621399 7.15168762 C-8.50894952 9.70528382 -8.36132932 11.43927312 -8.34057617 14.57299805 C-8.34034958 15.71395432 -8.34012299 16.85491058 -8.33988953 18.03044128 C-8.32440567 19.26176285 -8.30892181 20.49308441 -8.29296875 21.76171875 C-8.28872391 23.02264847 -8.28447906 24.28357819 -8.28010559 25.5827179 C-8.26614627 28.93174943 -8.23920104 32.28016758 -8.20599365 35.62902832 C-8.17528105 39.04755353 -8.16159776 42.46614215 -8.14648438 45.88476562 C-8.11337223 52.59001349 -8.06314018 59.29497133 -8 66 C-5.89767656 63.1315587 -5.89767656 63.1315587 -5 60 C-3.02 60 -1.04 60 1 60 C1.0248244 53.8802113 1.04291879 47.76045229 1.05493164 41.640625 C1.05994271 39.56119272 1.06675335 37.48176393 1.07543945 35.40234375 C1.08764683 32.40363703 1.09326071 29.40497714 1.09765625 26.40625 C1.10281754 25.48509399 1.10797882 24.56393799 1.11329651 23.61486816 C1.11375079 18.32019694 0.92986637 13.2204569 0 8 C-0.66 7.34 -1.32 6.68 -2 6 C-4.92627432 5.71570299 -4.92627432 5.71570299 -6.66621399 7.15168762 Z M-10 67 C-12.66116712 69.66116712 -12.9951775 70.90354991 -13.1875 74.75 C-13.125625 75.8225 -13.06375 76.895 -13 78 C-12.67 78 -12.34 78 -12 78 C-10.41678933 72.52225234 -10.41678933 72.52225234 -9 67 C-9.33 67 -9.66 67 -10 67 Z M0 67 C0.33 67.66 0.66 68.32 1 69 C1.66 69 2.32 69 3 69 C3 68.34 3 67.68 3 67 C2.01 67 1.02 67 0 67 Z M3 69 C3 69.99 3 70.98 3 72 C3.66 72 4.32 72 5 72 C4.67 71.01 4.34 70.02 4 69 C3.67 69 3.34 69 3 69 Z M-7 73 C-7.33 73.66 -7.66 74.32 -8 75 C-7.34 75 -6.68 75 -6 75 C-6.33 74.34 -6.66 73.68 -7 73 Z M-12 79 C-11.34 80.32 -10.68 81.64 -10 83 C-10 82.01 -10 81.02 -10 80 C-10.66 79.67 -11.32 79.34 -12 79 Z M4 79 C2.35 80.65 0.7 82.3 -1 84 C0.65 83.34 2.3 82.68 4 82 C4 81.01 4 80.02 4 79 Z " fill="#708EA4" transform="translate(177,66)"/>
<path d="M0 0 C3.90866756 2.0846227 5.19317512 4.13051087 6.5625 8.1875 C6.74941406 8.88230469 6.93632812 9.57710937 7.12890625 10.29296875 C7.86674011 12.22264402 7.86674011 12.22264402 10.08984375 12.73828125 C10.72019531 12.82464844 11.35054687 12.91101563 12 13 C12 13.99 12 14.98 12 16 C10.35 16 8.7 16 7 16 C7 18.31 7 20.62 7 23 C8.65 23 10.3 23 12 23 C12 23.99 12 24.98 12 26 C10.35 26 8.7 26 7 26 C7 27.98 7 29.96 7 32 C8.65 32.33 10.3 32.66 12 33 C12 33.99 12 34.98 12 36 C10.35 36 8.7 36 7 36 C7 38.31 7 40.62 7 43 C8.65 43.33 10.3 43.66 12 44 C12 44.99 12 45.98 12 47 C9.525 47.495 9.525 47.495 7 48 C7 49.65 7 51.3 7 53 C8.65 53.33 10.3 53.66 12 54 C12 54.99 12 55.98 12 57 C9.525 57.495 9.525 57.495 7 58 C7.66 61.63 8.32 65.26 9 69 C5.7 68.67 2.4 68.34 -1 68 C-1 65.69 -1 63.38 -1 61 C-2.65 61 -4.3 61 -6 61 C-5.67 60.34 -5.34 59.68 -5 59 C-3.02 59.33 -1.04 59.66 1 60 C0.9278125 59.24501221 0.855625 58.49002441 0.78125 57.7121582 C0.00866376 48.8562543 -0.08985692 40.06728886 0 31.1875 C0.17123371 19.55257151 0.17123371 19.55257151 -1 8 C-3.07553648 7.4465236 -4.84365964 7 -7 7 C-7 25.48 -7 43.96 -7 63 C-6.67 63 -6.34 63 -6 63 C-5.75 65.3125 -5.75 65.3125 -6 68 C-7.32 68.99 -8.64 69.98 -10 71 C-9.67 48.89 -9.34 26.78 -9 4 C-9.66 4 -10.32 4 -11 4 C-11 3.34 -11 2.68 -11 2 C-7.29266085 -0.47155943 -4.29905063 -0.65621517 0 0 Z " fill="#99AFC0" transform="translate(177,66)"/>
<path d="M0 0 C0 2.31 0 4.62 0 7 C-1.65 7.33 -3.3 7.66 -5 8 C-5.33 7.01 -5.66 6.02 -6 5 C-7.32 5.33 -8.64 5.66 -10 6 C-7.36 7.98 -4.72 9.96 -2 12 C-0.68 11.34 0.64 10.68 2 10 C3.32 10 4.64 10 6 10 C7.125 11.6875 7.125 11.6875 8 14 C7.125 16.75 7.125 16.75 6 19 C7.32 19.99 8.64 20.98 10 22 C9.67 23.32 9.34 24.64 9 26 C1.375 25.125 1.375 25.125 -2 24 C-3.63395469 24.50019021 -5.26754544 25.00163123 -6.8984375 25.51171875 C-11.53108057 26.58807634 -16.78081813 26.88302524 -21.23828125 25.109375 C-23 24 -23 24 -24 22 C-24.51028807 16.72702332 -24.51028807 16.72702332 -24 14 C-23.195625 13.360625 -22.39125 12.72125 -21.5625 12.0625 C-18.83247562 10.29116104 -18.83247562 10.29116104 -18.4453125 7.76171875 C-18.21339841 5.5023133 -18.05336123 3.27027795 -18 1 C-11.76647981 -1.3548854 -6.54311329 -0.87557031 0 0 Z M-17 16 C-17 16.99 -17 17.98 -17 19 C-13.7 19 -10.4 19 -7 19 C-8.79857668 16.4390706 -8.79857668 16.4390706 -11 14 C-14.18490007 13.7226499 -14.18490007 13.7226499 -17 16 Z " fill="#7294AE" transform="translate(157,173)"/>
<path d="M0 0 C0.99 0.33 1.98 0.66 3 1 C3 2.65 3 4.3 3 6 C4.65 6 6.3 6 8 6 C8 6.99 8 7.98 8 9 C7.01 9.495 7.01 9.495 6 10 C8.64 11.32 11.28 12.64 14 14 C13.67 14.99 13.34 15.98 13 17 C11.58249437 16.88490339 10.16598831 16.75746342 8.75 16.625 C7.96109375 16.55539063 7.1721875 16.48578125 6.359375 16.4140625 C3.914123 15.98492887 2.15163097 15.21399362 0 14 C0 16.64 0 19.28 0 22 C1.98 22 3.96 22 6 22 C6.33 22.99 6.66 23.98 7 25 C6.34 25 5.68 25 5 25 C5 25.66 5 26.32 5 27 C6.65 27 8.3 27 10 27 C10.33 28.65 10.66 30.3 11 32 C6.25 33.125 6.25 33.125 4 32 C4.33 32.66 4.66 33.32 5 34 C5.4375 36.875 5.4375 36.875 5 40 C2.13013628 42.60289966 0.29927688 43.96906484 -3.625 44.0625 C-6.72788031 42.67436933 -8.08834778 40.76127543 -10 38 C-10.33 39.98 -10.66 41.96 -11 44 C-11.99 44 -12.98 44 -14 44 C-14 41.69 -14 39.38 -14 37 C-14.99 37 -15.98 37 -17 37 C-16.48885865 34.9554346 -15.97680276 32.91236597 -15.4375 30.875 C-14.92425679 28.99628047 -14.92425679 28.99628047 -15 27 C-12 25 -12 25 -8 25 C-8 24.01 -8 23.02 -8 22 C-8.66 21.67 -9.32 21.34 -10 21 C-8.35 20.67 -6.7 20.34 -5 20 C-5 18.68 -5 17.36 -5 16 C-5.99 16 -6.98 16 -8 16 C-7.67 14.02 -7.34 12.04 -7 10 C-5.33333333 10 -3.66666667 10 -2 10 C-1.34 6.7 -0.68 3.4 0 0 Z M-9 30 C-7.49776416 34.20626034 -4.71449966 35.73900021 -1 38 C-0.70437633 32.67829506 -0.70437633 32.67829506 -3 28 C-6.18490007 27.7226499 -6.18490007 27.7226499 -9 30 Z " fill="#52799A" transform="translate(146,83)"/>
<path d="M0 0 C2.475 0.495 2.475 0.495 5 1 C5.33 2.32 5.66 3.64 6 5 C6.66 4.34 7.32 3.68 8 3 C8.99 3 9.98 3 11 3 C11 2.34 11 1.68 11 1 C11.556875 1.28875 12.11375 1.5775 12.6875 1.875 C15.08494645 3.0413253 17.51596939 4.0339881 20 5 C20.125 10.75 20.125 10.75 19 13 C20.98 12.67 22.96 12.34 25 12 C25.625 14.375 25.625 14.375 26 17 C25.34 17.66 24.68 18.32 24 19 C25.98 19.99 27.96 20.98 30 22 C29.814375 22.9075 29.62875 23.815 29.4375 24.75 C29.04265379 27.68314324 29.05308428 29.2644657 30 32 C27.525 32.495 27.525 32.495 25 33 C25 33.66 25 34.32 25 35 C22.525 35.495 22.525 35.495 20 36 C20 35.34 20 34.68 20 34 C20.66 34 21.32 34 22 34 C20.74458443 31.48916886 19.49936512 31.12874554 17 30 C19.31 29.01 21.62 28.02 24 27 C23.505 26.01 23.505 26.01 23 25 C24.65 25 26.3 25 28 25 C28.33 24.34 28.66 23.68 29 23 C26.03 22.01 23.06 21.02 20 20 C20.33 19.34 20.66 18.68 21 18 C21.66 18 22.32 18 23 18 C23 17.01 23 16.02 23 15 C21.35 15 19.7 15 18 15 C17.34 13.68 16.68 12.36 16 11 C15.67 11 15.34 11 15 11 C14.773125 12.258125 14.54625 13.51625 14.3125 14.8125 C13.50848834 18.12176537 13.33791393 18.76098771 10.4375 20.8125 C9.633125 21.204375 8.82875 21.59625 8 22 C7.67 22.99 7.34 23.98 7 25 C7.99 25 8.98 25 10 25 C10 26.32 10 27.64 10 29 C8.35 29.33 6.7 29.66 5 30 C5.33 27.36 5.66 24.72 6 22 C5.34 21.67 4.68 21.34 4 21 C4.99 21 5.98 21 7 21 C6.505 20.278125 6.01 19.55625 5.5 18.8125 C2.85832296 13.69037503 3.77609134 7.58942357 4 2 C3.01 2 2.02 2 1 2 C1.04125 3.19625 1.0825 4.3925 1.125 5.625 C1.10462773 9.46177774 0.70998978 12.49859236 -1 16 C-4.34143479 18.63797483 -5.6542293 19 -10 19 C-10 18.34 -10 17.68 -10 17 C-10.66 17 -11.32 17 -12 17 C-12 16.34 -12 15.68 -12 15 C-11.34 15 -10.68 15 -10 15 C-10.33 12.03 -10.66 9.06 -11 6 C-11.99 6 -12.98 6 -14 6 C-13.67 9.3 -13.34 12.6 -13 16 C-13.99 16.66 -14.98 17.32 -16 18 C-16 18.99 -16 19.98 -16 21 C-17.65 21.33 -19.3 21.66 -21 22 C-21 21.34 -21 20.68 -21 20 C-20.01 20 -19.02 20 -18 20 C-18 19.34 -18 18.68 -18 18 C-19.32 17.67 -20.64 17.34 -22 17 C-21.67 15.68 -21.34 14.36 -21 13 C-18.92446352 12.4465236 -17.15634036 12 -15 12 C-15 9.69 -15 7.38 -15 5 C-13.68 5 -12.36 5 -11 5 C-10.34 3.68 -9.68 2.36 -9 1 C-6.08482708 2.07401108 -4.22189824 2.77810176 -2 5 C-1.34 3.35 -0.68 1.7 0 0 Z M9 10 C9 10.66 9 11.32 9 12 C8.01 12.33 7.02 12.66 6 13 C6.33 13.99 6.66 14.98 7 16 C9.50447516 17.21869929 9.50447516 17.21869929 12 18 C13.65376711 16.34623289 13.63471208 14.19051636 14.0625 11.9375 C14.23910156 11.01839844 14.41570312 10.09929687 14.59765625 9.15234375 C14.73042969 8.44207031 14.86320312 7.73179688 15 7 C12.20091867 7 11.07277627 8.2035939 9 10 Z M-9 8 C-8.67 10.97 -8.34 13.94 -8 17 C-5.69 16.34 -3.38 15.68 -1 15 C-1.99 14.67 -2.98 14.34 -4 14 C-4.144375 13.360625 -4.28875 12.72125 -4.4375 12.0625 C-4.7159375 11.0415625 -4.7159375 11.0415625 -5 10 C-6.32 9.34 -7.64 8.68 -9 8 Z " fill="#98AFC0" transform="translate(131,74)"/>
<path d="M0 0 C6.6945598 6.34221454 11.12560561 15.73462529 15 24 C15 24.66 15 25.32 15 26 C11.75 26.8125 11.75 26.8125 8 27 C7.39542969 26.19175781 6.79085937 25.38351563 6.16796875 24.55078125 C4.2074113 21.72090322 4.2074113 21.72090322 0.94140625 21.3359375 C-6.11323903 21.18407587 -6.11323903 21.18407587 -12 24.5625 C-12.66 25.366875 -13.32 26.17125 -14 27 C-16.8125 26.8125 -16.8125 26.8125 -19 26 C-18.48931237 21.35614716 -17.31780197 18.4662547 -14.6875 14.625 C-12.45560455 11.27715682 -10.41366858 8.01041564 -8.6875 4.375 C-6.4997324 -0.0005352 -4.80500696 -0.78221043 0 0 Z M-3 8 C-3.66 9.98 -4.32 11.96 -5 14 C-3.35 14 -1.7 14 0 14 C-0.66 12.02 -1.32 10.04 -2 8 C-2.33 8 -2.66 8 -3 8 Z " fill="#5E85A3" transform="translate(115,172)"/>
<path d="M0 0 C3.14621682 0.13822199 6.29185566 0.28685084 9.4375 0.4375 C10.33533203 0.47681641 11.23316406 0.51613281 12.15820312 0.55664062 C13.01220703 0.59853516 13.86621094 0.64042969 14.74609375 0.68359375 C15.53685303 0.72025146 16.3276123 0.75690918 17.14233398 0.79467773 C19 1 19 1 20 2 C20.09540675 4.33363828 20.12552395 6.63753255 20.11352539 8.9715271 C20.11374868 10.07831816 20.11374868 10.07831816 20.11397648 11.20746863 C20.1132778 13.69872486 20.10541663 16.18990882 20.09765625 18.68115234 C20.0957386 20.45966043 20.09427408 22.23816905 20.0932312 24.01667786 C20.09006182 27.85596074 20.08378066 31.69522182 20.07516479 35.53449631 C20.06168874 41.60109039 20.05575798 47.66767711 20.05102539 53.73428345 C20.03895735 67.71052343 20.01691427 81.68674446 19.99479675 95.6629715 C19.97463851 108.46312561 19.95656111 121.26327334 19.94658184 134.06343997 C19.94158803 140.0981191 19.93171096 146.13276493 19.91815186 152.16743064 C19.91070859 155.91838953 19.90737982 159.66934378 19.9051857 163.42030907 C19.90330862 165.1638396 19.89969766 166.90736922 19.89425278 168.65089226 C19.88706911 171.02545171 19.88599757 173.39993719 19.88647461 175.77450562 C19.88287965 176.46934661 19.87928469 177.16418761 19.87558079 177.8800844 C19.88205747 180.8765583 20.04338657 183.13015972 21 186 C21.15555595 190.20001072 20.8440705 193.90022901 20 198 C20.33 198.33 20.66 198.66 21 199 C21.04092937 201.33297433 21.04241723 203.66705225 21 206 C20.34 206 19.68 206 19 206 C19 207.98 19 209.96 19 212 C18.34 212 17.68 212 17 212 C16.25747093 207.79868166 15.69564024 203.6243736 15.3125 199.375 C15.15201172 197.71597656 15.15201172 197.71597656 14.98828125 196.0234375 C15 193 15 193 15.98374844 191.08131027 C17.12326017 188.74755989 17.25704874 187.25724341 17.27174377 184.67559814 C17.28145989 183.81508284 17.29117601 182.95456753 17.30118656 182.067976 C17.30207358 180.66002612 17.30207358 180.66002612 17.30297852 179.22363281 C17.31566725 177.72641284 17.31566725 177.72641284 17.32861233 176.198946 C17.35459538 172.86699999 17.36666064 169.53514759 17.37890625 166.203125 C17.39483642 163.84656142 17.41170065 161.490004 17.42944336 159.13345337 C17.46553696 154.11370537 17.4957635 149.0939706 17.52127075 144.07415771 C17.56111243 136.26306783 17.61372787 128.45210262 17.66967773 120.64111328 C17.67889535 119.3512105 17.68811296 118.06130772 17.6976099 116.73231697 C17.7162347 114.12950103 17.73490281 111.5266854 17.75361443 108.92387009 C17.78127708 105.01961576 17.80770182 101.11535464 17.83387756 97.21109009 C17.97698917 76.19680007 18.21436203 55.18485959 18.52820969 34.17247009 C18.56256141 31.87088542 18.59642356 29.569294 18.63015747 27.2677002 C18.74896588 19.17839638 18.87150205 11.08915637 19 3 C18.38294189 3.00172211 17.76588379 3.00344421 17.13012695 3.00521851 C16.32019287 3.00655792 15.51025879 3.00789734 14.67578125 3.00927734 C13.47175659 3.0118605 13.47175659 3.0118605 12.2434082 3.01449585 C9.81040807 2.99877495 7.42019749 2.87566331 5 2.625 C4.2575 2.55539062 3.515 2.48578125 2.75 2.4140625 C2.1725 2.27742187 1.595 2.14078125 1 2 C0.67 1.34 0.34 0.68 0 0 Z " fill="#9F9F9F" transform="translate(219,13)"/>
<path d="M0 0 C0.66 0.33 1.32 0.66 2 1 C1.93867253 8.85002121 1.8614832 16.69971412 1.76428509 24.54936409 C1.71964043 28.19467057 1.68037175 31.83986681 1.65356445 35.48535156 C1.62747189 39.00634237 1.58702858 42.52690763 1.53681374 46.04763412 C1.51211642 48.03826001 1.50211553 50.02905075 1.49235535 52.01980591 C1.47256119 53.24061859 1.45276703 54.46143127 1.43237305 55.71923828 C1.41571846 57.32474045 1.41571846 57.32474045 1.39872742 58.962677 C0.93817468 62.47095702 -0.26946043 64.93661169 -2 68 C-2.66 68 -3.32 68 -4 68 C-4 71.3 -4 74.6 -4 78 C-5.65 77.67 -7.3 77.34 -9 77 C-9.11003792 75.48086534 -9.18649757 73.95929036 -9.25 72.4375 C-9.31960937 71.16712891 -9.31960937 71.16712891 -9.390625 69.87109375 C-9 67 -9 67 -6.99609375 63.8125 C-4.18096501 59.19781113 -4.60950032 54.82460473 -4.8125 49.5625 C-4.84945305 47.44408261 -4.88174054 45.32558035 -4.91015625 43.20703125 C-4.92836426 42.06314941 -4.94657227 40.91926758 -4.96533203 39.74072266 C-5.0235421 33.45977385 -4.94272503 27.1847512 -4.79550171 20.90548706 C-4.76527505 19.47360307 -4.74277828 18.04153411 -4.72817993 16.60940552 C-4.70707538 14.5882842 -4.65874355 12.56750349 -4.609375 10.546875 C-4.58842773 9.37995117 -4.56748047 8.21302734 -4.54589844 7.01074219 C-3.89931297 3.44469029 -2.7718673 2.24757185 0 0 Z " fill="#4F7A9B" transform="translate(167,69)"/>
<path d="M0 0 C4.57135188 1.76438143 5.31656394 3.68314662 7.3671875 7.9609375 C8.50062775 10.25004231 9.7575458 12.10800227 11.3125 14.125 C13.37351511 17.10202183 14.35251104 18.80518769 14.5625 22.375 C13.5625 23.375 13.5625 23.375 10.5 23.4375 C9.530625 23.416875 8.56125 23.39625 7.5625 23.375 C6.9025 21.725 6.2425 20.075 5.5625 18.375 C3.60332341 18.4618748 1.64508129 18.57004512 -0.3125 18.6875 C-1.40304688 18.74550781 -2.49359375 18.80351562 -3.6171875 18.86328125 C-4.54789063 19.03214844 -5.47859375 19.20101562 -6.4375 19.375 C-7.0975 20.365 -7.7575 21.355 -8.4375 22.375 C-12.0625 22.5625 -12.0625 22.5625 -15.4375 22.375 C-14.11065297 17.73103538 -12.14357148 14.34954248 -9.4375 10.375 C-9.1075 9.529375 -8.7775 8.68375 -8.4375 7.8125 C-6.53486472 3.17482651 -5.20101946 0.56738394 0 0 Z M-0.4375 8.375 C-1.0975 9.695 -1.7575 11.015 -2.4375 12.375 C-1.1175 12.045 0.2025 11.715 1.5625 11.375 C0.9025 10.385 0.2425 9.395 -0.4375 8.375 Z " fill="#4F7696" transform="translate(183.4375,175.625)"/>
<path d="M0 0 C0 3 0 3 -2 6 C-2.31251325 8.67827908 -2.31251325 8.67827908 -2.2784729 11.75163269 C-2.28963638 12.95056656 -2.30079987 14.14950043 -2.31230164 15.38476562 C-2.31446182 16.70178467 -2.31662201 18.01880371 -2.31884766 19.37573242 C-2.32814478 20.77517782 -2.33831313 22.17461766 -2.34928894 23.5740509 C-2.3766275 27.37539311 -2.39174971 31.17669818 -2.40471697 34.97811294 C-2.42033068 38.9499957 -2.44712648 42.92180244 -2.4727478 46.89363098 C-2.51956682 54.41585397 -2.55629578 61.93809122 -2.58942068 69.46038562 C-2.62762003 78.02382164 -2.6770359 86.58718136 -2.72740483 95.15055311 C-2.83077115 112.76698613 -2.91853542 130.38345114 -3 148 C16.14 148 35.28 148 55 148 C55 148.66 55 149.32 55 150 C35.53 150 16.06 150 -4 150 C-4.7723457 146.13827149 -5.12712615 143.17964451 -5.13371277 139.32070923 C-5.13797775 138.18804123 -5.14224274 137.05537323 -5.14663696 135.88838196 C-5.14595718 134.03831795 -5.14595718 134.03831795 -5.14526367 132.15087891 C-5.14862228 130.8446608 -5.1519809 129.53844269 -5.15544128 128.19264221 C-5.1642605 124.61613137 -5.16661852 121.03964446 -5.16725707 117.4631238 C-5.16796873 115.22661752 -5.17010525 112.99011729 -5.17275429 110.75361252 C-5.1820007 102.94543828 -5.18609004 95.13728109 -5.18530273 87.32910156 C-5.18470207 80.05993305 -5.19525347 72.79083878 -5.2110464 65.52168906 C-5.22413735 59.27269474 -5.22948598 53.02372465 -5.22884732 46.77471673 C-5.2285928 43.04602914 -5.23141872 39.31740756 -5.24202538 35.58873367 C-5.2535373 31.42840782 -5.24895002 27.26824757 -5.24291992 23.10791016 C-5.24853943 21.87858261 -5.25415894 20.64925507 -5.25994873 19.38267517 C-5.20928753 5.63415052 -5.20928753 5.63415052 -1.375 1.0625 C-0.694375 0.5365625 -0.694375 0.5365625 0 0 Z " fill="#A7A7A7" transform="translate(14,73)"/>
<path d="M0 0 C4.15354673 2.12292388 5.36349754 4.49020111 6.8125 8.75 C7.22470957 10.16198858 7.62610764 11.57738516 8 13 C7.34 13 6.68 13 6 13 C5.67 12.01 5.34 11.02 5 10 C4.34 10 3.68 10 3 10 C3 28.81 3 47.62 3 67 C1.02 67.495 1.02 67.495 -1 68 C-1 65.69 -1 63.38 -1 61 C-2.65 61 -4.3 61 -6 61 C-5.67 60.34 -5.34 59.68 -5 59 C-3.02 59.33 -1.04 59.66 1 60 C0.9278125 59.24501221 0.855625 58.49002441 0.78125 57.7121582 C0.00866376 48.8562543 -0.08985692 40.06728886 0 31.1875 C0.17123371 19.55257151 0.17123371 19.55257151 -1 8 C-3.07553648 7.4465236 -4.84365964 7 -7 7 C-7 25.48 -7 43.96 -7 63 C-6.67 63 -6.34 63 -6 63 C-5.75 65.3125 -5.75 65.3125 -6 68 C-7.32 68.99 -8.64 69.98 -10 71 C-9.67 48.89 -9.34 26.78 -9 4 C-9.66 4 -10.32 4 -11 4 C-11 3.34 -11 2.68 -11 2 C-7.28864553 -0.47423631 -4.30225117 -0.64828442 0 0 Z " fill="#B7CAD7" transform="translate(177,66)"/>
<path d="M0 0 C0.99 0 1.98 0 3 0 C3.04898438 0.90363281 3.09796875 1.80726562 3.1484375 2.73828125 C3.22320312 3.91777344 3.29796875 5.09726563 3.375 6.3125 C3.44460937 7.48425781 3.51421875 8.65601562 3.5859375 9.86328125 C3.78613747 13.15699887 3.78613747 13.15699887 6 16 C6 16.99 6 17.98 6 19 C4.02 19.33 2.04 19.66 0 20 C0 19.34 0 18.68 0 18 C-0.99 18.33 -1.98 18.66 -3 19 C-3 20.32 -3 21.64 -3 23 C-4.32 23 -5.64 23 -7 23 C-6.34 25.97 -5.68 28.94 -5 32 C-6.65 32 -8.3 32 -10 32 C-10 28.37 -10 24.74 -10 21 C-11.7325 21.495 -13.465 21.99 -15.25 22.5 C-18.77187446 23.50624984 -21.29230285 24 -25 24 C-25 23.01 -25 22.02 -25 21 C-21.04 19.515 -21.04 19.515 -17 18 C-17.33 17.01 -17.66 16.02 -18 15 C-16.68 14.67 -15.36 14.34 -14 14 C-14.33 10.7 -14.66 7.4 -15 4 C-14.01 4 -13.02 4 -12 4 C-10.5216774 6.95664519 -10.93967217 9.74229737 -11 13 C-11.66 13 -12.32 13 -13 13 C-13 13.66 -13 14.32 -13 15 C-12.34 15 -11.68 15 -11 15 C-11 15.66 -11 16.32 -11 17 C-8.18182112 16.2528549 -5.56897636 15.39218556 -3 14 C-0.69902826 9.69818328 -0.49757722 4.80991315 0 0 Z " fill="#4D7698" transform="translate(132,76)"/>
<path d="M0 0 C1.32 0.66 2.64 1.32 4 2 C4 5.11257569 3.82638376 7.10765685 3 10 C4.32 10.99 5.64 11.98 7 13 C6.67 14.32 6.34 15.64 6 17 C-1.625 16.125 -1.625 16.125 -5 15 C-6.6319436 15.49957457 -8.26335866 16.0010194 -9.890625 16.515625 C-14.26227372 17.51948508 -19.9201938 18.0399031 -24 16 C-23.67 14.68 -23.34 13.36 -23 12 C-18.38 12 -13.76 12 -9 12 C-10.54042748 7.19695965 -10.54042748 7.19695965 -13 5 C-13 4.01 -13 3.02 -13 2 C-9.28111761 2.50712033 -6.26545761 3.11608215 -3 5 C-2.690625 4.360625 -2.38125 3.72125 -2.0625 3.0625 C-1 1 -1 1 0 0 Z " fill="#4A7599" transform="translate(160,182)"/>
<path d="M0 0 C0.99 0.33 1.98 0.66 3 1 C3 3.31 3 5.62 3 8 C4.32 8.33 5.64 8.66 7 9 C8.44024832 16.0812209 8.44024832 16.0812209 6.5625 20 C3.91602352 22.06554262 3.142464 22.37919025 -0.0625 22.5625 C-4 22 -4 22 -6.0625 20.4375 C-7.40702579 16.94173294 -6.91378144 14.58985565 -6 11 C-5 10 -4 9 -3 8 C-2.63858045 5.67085177 -2.30300475 3.33746522 -2 1 C-1.34 0.67 -0.68 0.34 0 0 Z M-3 13 C-3.33 13.66 -3.66 14.32 -4 15 C-3.34 15 -2.68 15 -2 15 C-2.33 14.34 -2.66 13.68 -3 13 Z " fill="#555659" transform="translate(173,126)"/>
<path d="M0 0 C2.79915998 0.52955373 2.79915998 0.52955373 6.125 0.4375 C9.6875 0.4375 9.6875 0.4375 12.859375 0.91015625 C17.83643378 1.59577149 22.79310727 1.78118546 27.81054688 1.95507812 C33.4703009 2.2203009 33.4703009 2.2203009 35.6875 4.4375 C27.1075 4.4375 18.5275 4.4375 9.6875 4.4375 C9.3575 5.4275 9.0275 6.4175 8.6875 7.4375 C5.34497276 7.51177838 2.8839086 7.50296953 -0.3125 6.4375 C-2.22090388 6.20717539 -4.12944859 5.97787953 -6.0390625 5.7578125 C-9.84746188 5.22123389 -13.57375362 4.32891407 -17.3125 3.4375 C-17.6425 4.4275 -17.9725 5.4175 -18.3125 6.4375 C-18.6425 4.7875 -18.9725 3.1375 -19.3125 1.4375 C-20.6325 2.7575 -21.9525 4.0775 -23.3125 5.4375 C-22.6875 3.0625 -22.6875 3.0625 -21.3125 0.4375 C-15.05653566 -3.18437409 -6.80343071 -1.15529955 0 0 Z " fill="#626262" transform="translate(87.3125,1.5625)"/>
<path d="M0 0 C0.66 0.33 1.32 0.66 2 1 C1.9278125 1.61488281 1.855625 2.22976562 1.78125 2.86328125 C1.6884375 3.67152344 1.595625 4.47976562 1.5 5.3125 C1.4071875 6.11300781 1.314375 6.91351563 1.21875 7.73828125 C0.95186537 10.11896555 0.95186537 10.11896555 1 13 C-2.13498292 14.85776765 -4.37471432 15.20140476 -8 15 C-6.62968895 20.65253308 -2.32310587 23.5113541 2 27 C1.67 27.99 1.34 28.98 1 30 C-1.95409701 28.62845496 -4.44008376 27.01136276 -7 25 C-7.33 26.98 -7.66 28.96 -8 31 C-8.99 31 -9.98 31 -11 31 C-11 28.69 -11 26.38 -11 24 C-11.99 24 -12.98 24 -14 24 C-13.48885865 21.9554346 -12.97680276 19.91236597 -12.4375 17.875 C-11.92425679 15.99628047 -11.92425679 15.99628047 -12 14 C-9 12 -9 12 -5 12 C-5 11.01 -5 10.02 -5 9 C-5.66 8.67 -6.32 8.34 -7 8 C-5.35 7.67 -3.7 7.34 -2 7 C-1.855625 6.401875 -1.71125 5.80375 -1.5625 5.1875 C-1.1127561 3.43849596 -0.57107659 1.71322977 0 0 Z " fill="#4F7696" transform="translate(143,96)"/>
<path d="M0 0 C0.556875 0.28875 1.11375 0.5775 1.6875 0.875 C4.08494645 2.0413253 6.51596939 3.0339881 9 4 C9.125 9.75 9.125 9.75 8 12 C9.98 11.67 11.96 11.34 14 11 C14.625 13.375 14.625 13.375 15 16 C14.34 16.66 13.68 17.32 13 18 C14.98 18.99 16.96 19.98 19 21 C18.814375 21.9075 18.62875 22.815 18.4375 23.75 C18.04265379 26.68314324 18.05308428 28.2644657 19 31 C17.35 31.33 15.7 31.66 14 32 C14 32.66 14 33.32 14 34 C11.525 34.495 11.525 34.495 9 35 C9 34.34 9 33.68 9 33 C9.66 33 10.32 33 11 33 C9.74458443 30.48916886 8.49936512 30.12874554 6 29 C8.31 28.01 10.62 27.02 13 26 C12.67 25.34 12.34 24.68 12 24 C13.65 24 15.3 24 17 24 C17.33 23.34 17.66 22.68 18 22 C15.03 21.01 12.06 20.02 9 19 C9.33 18.34 9.66 17.68 10 17 C10.66 17 11.32 17 12 17 C12 16.01 12 15.02 12 14 C10.35 14 8.7 14 7 14 C6.34 12.68 5.68 11.36 5 10 C4.67 10 4.34 10 4 10 C3.67 11.98 3.34 13.96 3 16 C2.67 16 2.34 16 2 16 C2 11.66666667 2 7.33333333 2 3 C1.34 2.67 0.68 2.34 0 2 C0 1.34 0 0.68 0 0 Z " fill="#AEC2D0" transform="translate(142,75)"/>
<path d="M0 0 C3.01940914 3.01940914 5.49706491 5.64122922 6 10 C4.68 10 3.36 10 2 10 C2 11.65 2 13.3 2 15 C-0.97 15 -3.94 15 -7 15 C-7 14.01 -7 13.02 -7 12 C-7.66 12 -8.32 12 -9 12 C-9 11.34 -9 10.68 -9 10 C-8.34 10 -7.68 10 -7 10 C-7 9.34 -7 8.68 -7 8 C-7.99 8.33 -8.98 8.66 -10 9 C-9.37315423 6.07471973 -8.51695295 3.58774327 -7 1 C-4.32590305 -0.33704848 -2.97186266 -0.4837916 0 0 Z M-3 8 C-3.66 9.98 -4.32 11.96 -5 14 C-3.35 14 -1.7 14 0 14 C-0.66 12.02 -1.32 10.04 -2 8 C-2.33 8 -2.66 8 -3 8 Z " fill="#7695AC" transform="translate(115,172)"/>
<path d="M0 0 C0.66 0.33 1.32 0.66 2 1 C1.67 13.21 1.34 25.42 1 38 C0.01 38 -0.98 38 -2 38 C-3 37 -3 37 -3.11352539 34.04077148 C-3.10828857 32.74727783 -3.10305176 31.45378418 -3.09765625 30.12109375 C-3.0962413 29.4344313 -3.09482635 28.74776886 -3.09336853 28.04029846 C-3.08775479 25.83932199 -3.07520007 23.63844591 -3.0625 21.4375 C-3.05748676 19.94856917 -3.05292355 18.45963676 -3.04882812 16.97070312 C-3.03778093 13.31376925 -3.02050713 9.65689442 -3 6 C-2.34 6 -1.68 6 -1 6 C-1.0309375 4.7934375 -1.0309375 4.7934375 -1.0625 3.5625 C-1 1 -1 1 0 0 Z " fill="#4D7695" transform="translate(167,69)"/>
<path d="M0 0 C1.32 0.66 2.64 1.32 4 2 C4 5.11257569 3.82638376 7.10765685 3 10 C4.32 10.99 5.64 11.98 7 13 C6.67 14.32 6.34 15.64 6 17 C-1.625 16.125 -1.625 16.125 -5 15 C-6.63157548 15.49946188 -8.26272879 16.00039238 -9.890625 16.51171875 C-13.83629368 17.42506798 -17.98618024 17.49897576 -22 17 C-22.66 16.34 -23.32 15.68 -24 15 C-22.86820313 14.96261719 -21.73640625 14.92523438 -20.5703125 14.88671875 C-19.08850795 14.82106918 -17.60673861 14.75462149 -16.125 14.6875 C-15.00544922 14.65366211 -15.00544922 14.65366211 -13.86328125 14.61914062 C-11.900396 14.52188055 -9.94671678 14.26957706 -8 14 C-7.34 13.01 -6.68 12.02 -6 11 C-2.875 10.3125 -2.875 10.3125 0 10 C0.33 7.69 0.66 5.38 1 3 C-0.32 3.33 -1.64 3.66 -3 4 C-2.01 2.68 -1.02 1.36 0 0 Z " fill="#88A1B6" transform="translate(160,182)"/>
<path d="M0 0 C0.99 0.33 1.98 0.66 3 1 C2.34 1 1.68 1 1 1 C1 1.99 1 2.98 1 4 C2.03060547 3.65775391 2.03060547 3.65775391 3.08203125 3.30859375 C3.98308594 3.02113281 4.88414063 2.73367187 5.8125 2.4375 C6.70582031 2.14746094 7.59914063 1.85742188 8.51953125 1.55859375 C11 1 11 1 14 2 C11.36 2.99 8.72 3.98 6 5 C9.465 6.485 9.465 6.485 13 8 C13.66 5.69 14.32 3.38 15 1 C15.33 1 15.66 1 16 1 C16 3.97 16 6.94 16 10 C14.68 10.33 13.36 10.66 12 11 C9.77022004 12.97901574 9.77022004 12.97901574 8 15 C7.34 14.67 6.68 14.34 6 14 C5.34 13.690625 4.68 13.38125 4 13.0625 C2 12 2 12 0 10 C-0.1953125 7.6171875 -0.1953125 7.6171875 -0.125 4.875 C-0.10695313 3.96492188 -0.08890625 3.05484375 -0.0703125 2.1171875 C-0.04710938 1.41851562 -0.02390625 0.71984375 0 0 Z " fill="#A0B9C9" transform="translate(106,96)"/>
<path d="M0 0 C0.66 0.33 1.32 0.66 2 1 C1.79375 1.598125 1.5875 2.19625 1.375 2.8125 C0.69328085 5.28450846 0.69328085 5.28450846 3 8 C2.34 8 1.68 8 1 8 C1 10.64 1 13.28 1 16 C3.31 15.34 5.62 14.68 8 14 C6.02579865 16.52259061 5.03254358 16.9929808 1.8125 17.6875 C0.884375 17.790625 -0.04375 17.89375 -1 18 C-1 17.34 -1 16.68 -1 16 C-1.66 16 -2.32 16 -3 16 C-3 15.34 -3 14.68 -3 14 C-2.34 14 -1.68 14 -1 14 C-1.33 11.03 -1.66 8.06 -2 5 C-2.99 5 -3.98 5 -5 5 C-4.67 8.3 -4.34 11.6 -4 15 C-4.99 15.66 -5.98 16.32 -7 17 C-7 17.99 -7 18.98 -7 20 C-8.65 20.33 -10.3 20.66 -12 21 C-12 20.34 -12 19.68 -12 19 C-11.01 19 -10.02 19 -9 19 C-9 18.34 -9 17.68 -9 17 C-10.32 16.67 -11.64 16.34 -13 16 C-12.67 14.68 -12.34 13.36 -12 12 C-9.92446352 11.4465236 -8.15634036 11 -6 11 C-6 8.69 -6 6.38 -6 4 C-4.68 4 -3.36 4 -2 4 C-1.34 2.68 -0.68 1.36 0 0 Z " fill="#C2D1DB" transform="translate(122,75)"/>
<path d="M0 0 C0.99 0 1.98 0 3 0 C4 2 4 2 3.9375 4.4375 C3.77767869 7.24528606 3.77767869 7.24528606 6 10 C12.62542554 11.35380916 12.62542554 11.35380916 19 10 C18.67 11.32 18.34 12.64 18 14 C16.25181409 14.22304441 14.50129677 14.4278645 12.75 14.625 C11.77546875 14.74101562 10.8009375 14.85703125 9.796875 14.9765625 C6.86570607 15.00112537 5.45471036 14.5312717 3 13 C3.33 14.65 3.66 16.3 4 18 C0.20620942 16.50958227 -1.68343758 14.30937488 -4 11 C-4 10.34 -4 9.68 -4 9 C-3.01 9 -2.02 9 -1 9 C-0.67 6.03 -0.34 3.06 0 0 Z M2 8 C2.66 9.32 3.32 10.64 4 12 C4 11.01 4 10.02 4 9 C3.34 8.67 2.68 8.34 2 8 Z " fill="#9EB2C3" transform="translate(163,137)"/>
<path d="M0 0 C1.32 0.33 2.64 0.66 4 1 C3.67 2.65 3.34 4.3 3 6 C0.03 5.505 0.03 5.505 -3 5 C-2.67 5.66 -2.34 6.32 -2 7 C-1.5625 9.875 -1.5625 9.875 -2 13 C-4.90794628 15.63743965 -6.70624175 17 -10.6875 17 C-13.43498117 15.81190004 -14.45293562 14.52415768 -16 12 C-15.401875 12.309375 -14.80375 12.61875 -14.1875 12.9375 C-11.91043228 14.10209704 -11.91043228 14.10209704 -9 15 C-10.71962138 10.97018019 -13.10509184 9.14148205 -16.5390625 6.5625 C-18 5 -18 5 -18 1 C-16.35 1 -14.7 1 -13 1 C-13.66 2.32 -14.32 3.64 -15 5 C-13.02 6.65 -11.04 8.3 -9 10 C-8.34 8.68 -7.68 7.36 -7 6 C-6.67 6.66 -6.34 7.32 -6 8 C-5.34 6.35 -4.68 4.7 -4 3 C-1.03 3.495 -1.03 3.495 2 4 C2.33 3.34 2.66 2.68 3 2 C2.01 1.67 1.02 1.34 0 1 C0 0.67 0 0.34 0 0 Z " fill="#C9D6E0" transform="translate(153,110)"/>
<path d="M0 0 C1 3 1 3 1 5 C8.425 5.99 8.425 5.99 16 7 C16.33 8.32 16.66 9.64 17 11 C20.465 10.505 20.465 10.505 24 10 C23.67 10.99 23.34 11.98 23 13 C21.02 13 19.04 13 17 13 C16.34 11.35 15.68 9.7 15 8 C13.04082341 8.0868748 11.08258129 8.19504512 9.125 8.3125 C8.03445312 8.37050781 6.94390625 8.42851562 5.8203125 8.48828125 C4.42425781 8.74158203 4.42425781 8.74158203 3 9 C2.01 10.485 2.01 10.485 1 12 C-2.625 12.1875 -2.625 12.1875 -6 12 C-4.68139111 7.38486888 -2.78644563 3.90102388 0 0 Z " fill="#A0B8CB" transform="translate(174,186)"/>
<path d="M0 0 C0.66 0.33 1.32 0.66 2 1 C1.01 2.485 1.01 2.485 0 4 C1.32 3.67 2.64 3.34 4 3 C3.85795259 4.58367747 3.71119847 6.16693318 3.5625 7.75 C3.48128906 8.63171875 3.40007812 9.5134375 3.31640625 10.421875 C3.03761535 12.69350452 2.61209423 14.79851823 2 17 C1.01 17 0.02 17 -1 17 C-1.33 14.36 -1.66 11.72 -2 9 C-3.98 9.33 -5.96 9.66 -8 10 C-8.33 9.01 -8.66 8.02 -9 7 C-8.67 6.34 -8.34 5.68 -8 5 C-6.5459375 4.5359375 -6.5459375 4.5359375 -5.0625 4.0625 C-1.7319557 3.25255878 -1.7319557 3.25255878 0 0 Z " fill="#6C8EA6" transform="translate(118,106)"/>
<path d="M0 0 C0.33 0 0.66 0 1 0 C1 1.65 1 3.3 1 5 C0.34 5 -0.32 5 -1 5 C-0.99111755 5.67349991 -0.98223511 6.34699982 -0.9730835 7.04090881 C-0.88443222 14.06519057 -0.82419154 21.08931279 -0.78027344 28.11401367 C-0.76018673 30.73387103 -0.73291211 33.35368372 -0.69824219 35.97338867 C-0.64959721 39.74409017 -0.62700092 43.51419767 -0.609375 47.28515625 C-0.58872986 48.45208511 -0.56808472 49.61901398 -0.54681396 50.82130432 C-0.54497226 57.53047918 -1.13448777 61.48855191 -5 67 C-5.66695725 69.57151687 -5.66695725 69.57151687 -5.75 71.9375 C-5.80671875 72.70964844 -5.8634375 73.48179687 -5.921875 74.27734375 C-5.94765625 74.84582031 -5.9734375 75.41429687 -6 76 C-6.33 76 -6.66 76 -7 76 C-7.11003792 74.48086534 -7.18649757 72.95929036 -7.25 71.4375 C-7.31960937 70.16712891 -7.31960937 70.16712891 -7.390625 68.87109375 C-7 66 -7 66 -4.99609375 62.8125 C-2.18120503 58.1982046 -2.60861231 53.82430299 -2.8125 48.5625 C-2.85248018 46.4453981 -2.88734562 44.32819542 -2.91796875 42.2109375 C-2.93649902 41.0672168 -2.9550293 39.92349609 -2.97412109 38.74511719 C-3.01766503 32.44357072 -2.86819472 26.14914466 -2.68563843 19.85055542 C-2.64530493 18.41180444 -2.60917286 16.97292936 -2.57730103 15.53396606 C-2.53228114 13.50548673 -2.47345278 11.47732821 -2.4140625 9.44921875 C-2.3826416 8.27705811 -2.3512207 7.10489746 -2.31884766 5.8972168 C-2 3 -2 3 0 0 Z " fill="#C0CFDA" transform="translate(165,70)"/>
<path d="M0 0 C0.66 0 1.32 0 2 0 C2.33 14.85 2.66 29.7 3 45 C1.02 45.495 1.02 45.495 -1 46 C-1 43.69 -1 41.38 -1 39 C-2.65 39 -4.3 39 -6 39 C-5.67 38.34 -5.34 37.68 -5 37 C-3.02 37.33 -1.04 37.66 1 38 C0.9278125 37.35160156 0.855625 36.70320313 0.78125 36.03515625 C-0.35299141 24.04685472 -0.09139579 12.0290918 0 0 Z " fill="#C4D3E0" transform="translate(177,88)"/>
<path d="M0 0 C0.66 0.99 1.32 1.98 2 3 C2.99 2.34 3.98 1.68 5 1 C6.37562854 2.28965176 7.70766393 3.62689293 9 5 C9 5.66 9 6.32 9 7 C5.75 7.8125 5.75 7.8125 2 8 C1.39542969 7.19175781 0.79085937 6.38351563 0.16796875 5.55078125 C-1.7925887 2.72090322 -1.7925887 2.72090322 -5.05859375 2.3359375 C-12.11323903 2.18407587 -12.11323903 2.18407587 -18 5.5625 C-18.66 6.366875 -19.32 7.17125 -20 8 C-22.8125 7.8125 -22.8125 7.8125 -25 7 C-24.67 6.01 -24.34 5.02 -24 4 C-24 4.66 -24 5.32 -24 6 C-21.59855733 5.8042208 -21.59855733 5.8042208 -19 5 C-18.61585937 4.34386719 -18.23171875 3.68773437 -17.8359375 3.01171875 C-15.48435282 0.43498234 -13.54171342 0.36743879 -10.14648438 0.14648438 C-9.41751953 0.11876953 -8.68855469 0.09105469 -7.9375 0.0625 C-6.83825195 -0.01967773 -6.83825195 -0.01967773 -5.71679688 -0.10351562 C-3.58984375 -0.21484375 -3.58984375 -0.21484375 0 0 Z " fill="#A8BAC9" transform="translate(121,191)"/>
<path d="M0 0 C3.5 1.1875 3.5 1.1875 6 4.0625 C7.5 7.1875 7.5 7.1875 6.5 10.1875 C6.17 9.5275 5.84 8.8675 5.5 8.1875 C4.51 8.1875 3.52 8.1875 2.5 8.1875 C2.83 9.8375 3.16 11.4875 3.5 13.1875 C0.86 13.1875 -1.78 13.1875 -4.5 13.1875 C-2.625 8.4375 -2.625 8.4375 -1.5 6.1875 C-0.84 6.1875 -0.18 6.1875 0.5 6.1875 C0.5 5.5275 0.5 4.8675 0.5 4.1875 C-3.17420866 4.49368405 -4.28135513 4.94521784 -6.8125 7.75 C-7.369375 8.554375 -7.92625 9.35875 -8.5 10.1875 C-7.85217115 4.51899759 -6.13033584 0.32841085 0 0 Z M-0.5 8.1875 C-1.16 9.5075 -1.82 10.8275 -2.5 12.1875 C-1.18 11.8575 0.14 11.5275 1.5 11.1875 C0.84 10.1975 0.18 9.2075 -0.5 8.1875 Z " fill="#99B4C7" transform="translate(183.5,175.8125)"/>
<path d="M0 0 C2.84110317 4.26165475 2.40331058 7.93863483 1.4375 12.875 C1.293125 13.57625 1.14875 14.2775 1 15 C1.33 15.33 1.66 15.66 2 16 C2.04092937 18.33297433 2.04241723 20.66705225 2 23 C1.34 23 0.68 23 0 23 C0 24.98 0 26.96 0 29 C-0.66 29 -1.32 29 -2 29 C-2.74252907 24.79868166 -3.30435976 20.6243736 -3.6875 16.375 C-3.79449219 15.26898438 -3.90148437 14.16296875 -4.01171875 13.0234375 C-3.99994375 9.98548722 -3.60842071 8.5266379 -2 6 C-1.67 7.32 -1.34 8.64 -1 10 C-0.67 6.7 -0.34 3.4 0 0 Z " fill="#A9A9A9" transform="translate(238,196)"/>
<path d="M0 0 C0.763125 0.20625 1.52625 0.4125 2.3125 0.625 C2.3125 1.285 2.3125 1.945 2.3125 2.625 C1.6525 2.625 0.9925 2.625 0.3125 2.625 C0.3125 3.285 0.3125 3.945 0.3125 4.625 C2.7875 5.615 2.7875 5.615 5.3125 6.625 C4.9825 7.615 4.6525 8.605 4.3125 9.625 C2.3325 8.965 0.3525 8.305 -1.6875 7.625 C-1.81125 8.429375 -1.935 9.23375 -2.0625 10.0625 C-2.26875 10.908125 -2.475 11.75375 -2.6875 12.625 C-3.6775 13.12 -3.6775 13.12 -4.6875 13.625 C-4.85623478 12.18774129 -5.02240737 10.75018162 -5.1875 9.3125 C-5.2803125 8.51199219 -5.373125 7.71148437 -5.46875 6.88671875 C-5.6875 4.625 -5.6875 4.625 -5.6875 1.625 C-2.6875 -0.375 -2.6875 -0.375 0 0 Z " fill="#4C7492" transform="translate(150.6875,105.375)"/>
<path d="M0 0 C0.66 0 1.32 0 2 0 C2 0.66 2 1.32 2 2 C5.465 1.505 5.465 1.505 9 1 C8.67 1.66 8.34 2.32 8 3 C7.34 3 6.68 3 6 3 C6 3.99 6 4.98 6 6 C9.63 6 13.26 6 17 6 C17 6.66 17 7.32 17 8 C15.75283203 8.07347656 15.75283203 8.07347656 14.48046875 8.1484375 C13.39378906 8.22320312 12.30710938 8.29796875 11.1875 8.375 C10.10855469 8.44460937 9.02960938 8.51421875 7.91796875 8.5859375 C4.81373814 8.81195733 4.81373814 8.81195733 2 11 C1.34 11 0.68 11 0 11 C-1.62651522 7.74696956 -1.11453156 4.60774398 -1 1 C-0.67 0.67 -0.34 0.34 0 0 Z " fill="#829FB6" transform="translate(134,186)"/>
<path d="M0 0 C1.27469407 2.54938815 1.12016184 4.33040998 1.11352539 7.18408203 C1.11341209 8.80553635 1.11341209 8.80553635 1.11329651 10.45974731 C1.10813522 11.63060883 1.10297394 12.80147034 1.09765625 14.0078125 C1.0962413 15.20356903 1.09482635 16.39932556 1.09336853 17.63131714 C1.08775663 21.46256987 1.07520208 25.29376484 1.0625 29.125 C1.05748653 31.71744707 1.05292336 34.30989506 1.04882812 36.90234375 C1.03778333 43.26824898 1.02103359 49.63412037 1 56 C1.33 56 1.66 56 2 56 C2.25 58.3125 2.25 58.3125 2 61 C-0.015625 62.66796875 -0.015625 62.66796875 -2 64 C-1.89264919 55.80300281 -1.78004701 47.60610208 -1.66066074 39.40927219 C-1.60539706 35.60352595 -1.55197171 31.79777208 -1.50268555 27.99194336 C-1.45509259 24.32200665 -1.40275191 20.65216609 -1.34705925 16.98234367 C-1.32661263 15.57927773 -1.30790343 14.1761854 -1.29092598 12.7730732 C-1.26693313 10.81423074 -1.23629801 8.85547299 -1.20532227 6.89672852 C-1.18977798 5.77976089 -1.1742337 4.66279327 -1.15821838 3.51197815 C-1 1 -1 1 0 0 Z " fill="#CAD8DE" transform="translate(169,73)"/>
<path d="M0 0 C0.33 0 0.66 0 1 0 C0.67 2.64 0.34 5.28 0 8 C1.32 8.66 2.64 9.32 4 10 C-2 16 -2 16 -4.5625 16.0625 C-5.366875 16.041875 -6.17125 16.02125 -7 16 C-7.46524509 11.37292612 -6.10078492 9.00258819 -3.5625 5.1875 C-2.92441406 4.21167969 -2.28632812 3.23585937 -1.62890625 2.23046875 C-1.09136719 1.49441406 -0.55382812 0.75835937 0 0 Z " fill="#6085A2" transform="translate(104,181)"/>
<path d="M0 0 C-1.875 5.75 -1.875 5.75 -3 8 C-3.66 8 -4.32 8 -5 8 C-5 11.3 -5 14.6 -5 18 C-6.32 17.67 -7.64 17.34 -9 17 C-9.53877102 10.40005501 -8.94343357 6.40813747 -5 1 C-2 0 -2 0 0 0 Z " fill="#5A7E98" transform="translate(168,129)"/>
<path d="M0 0 C3.58583721 4.03169527 3.42996007 7.15360389 3.3046875 12.359375 C2.94080728 15.51300355 2.0240005 17.55433273 0 20 C-0.66 19.67 -1.32 19.34 -2 19 C-1.505 18.360625 -1.01 17.72125 -0.5 17.0625 C1.50950277 12.95976517 1.26385672 9.48556418 1 5 C-0.32 4.67 -1.64 4.34 -3 4 C-2.67 4.66 -2.34 5.32 -2 6 C-1.8125 9.5 -1.8125 9.5 -2 13 C-2.66 13.66 -3.32 14.32 -4 15 C-6 15 -8 15 -10 15 C-9.34 14.443125 -8.68 13.88625 -8 13.3125 C-5.74507789 11.15937692 -5.74507789 11.15937692 -5.75 8.25 C-5.8325 7.5075 -5.915 6.765 -6 6 C-5.34 6 -4.68 6 -4 6 C-4.66 4.35 -5.32 2.7 -6 1 C-4.02 1.66 -2.04 2.32 0 3 C0 2.01 0 1.02 0 0 Z " fill="#BDCAD2" transform="translate(186,132)"/>
<path d="M0 0 C0 0.66 0 1.32 0 2 C0.99 2 1.98 2 3 2 C3 4.31 3 6.62 3 9 C3.99 9 4.98 9 6 9 C6 6.69 6 4.38 6 2 C6.66 2.66 7.32 3.32 8 4 C7.625 7.125 7.625 7.125 7 10 C5.35 10 3.7 10 2 10 C1.34 8.68 0.68 7.36 0 6 C-0.598125 6.495 -1.19625 6.99 -1.8125 7.5 C-4 9 -4 9 -7 9 C-6.53149863 4.78348764 -4.94559315 0 0 0 Z " fill="#67879F" transform="translate(129,118)"/>
<path d="M0 0 C0.33 0 0.66 0 1 0 C1 2.97 1 5.94 1 9 C2.65 9 4.3 9 6 9 C6 9.33 6 9.66 6 10 C4.35 10 2.7 10 1 10 C1.11362262 11.4800841 1.24122908 12.95910074 1.375 14.4375 C1.44460937 15.26121094 1.51421875 16.08492187 1.5859375 16.93359375 C1.72257813 17.61550781 1.85921875 18.29742187 2 19 C2.66 19.33 3.32 19.66 4 20 C4 20.99 4 21.98 4 23 C-0.75 22.25 -0.75 22.25 -3 20 C-3.45231326 13.893771 -3.45231326 13.893771 -2.0234375 11.0703125 C-0.86246379 8.7217779 -0.60437176 6.8495466 -0.375 4.25 C-0.30023438 3.45078125 -0.22546875 2.6515625 -0.1484375 1.828125 C-0.09945312 1.22484375 -0.05046875 0.6215625 0 0 Z " fill="#547995" transform="translate(182,112)"/>
<path d="M0 0 C3.47120788 -0.07084098 6.75696052 -0.03624794 10.1953125 0.4765625 C15.16414236 1.16015922 20.11398085 1.34397567 25.12304688 1.51757812 C30.7828009 1.7828009 30.7828009 1.7828009 33 4 C24.42 4 15.84 4 7 4 C6.67 4.99 6.34 5.98 6 7 C3.125 7.125 3.125 7.125 0 7 C-0.66 6.34 -1.32 5.68 -2 5 C-0.02 4.34 1.96 3.68 4 3 C2.68 2.01 1.36 1.02 0 0 Z " fill="#949494" transform="translate(90,2)"/>
<path d="M0 0 C0.99 0.33 1.98 0.66 3 1 C2.67815583 3.89659753 2.38591512 6.31897331 0.9375 8.875 C-2.26056073 10.73193849 -5.35518997 10.17925295 -9 10 C-9.33 9.01 -9.66 8.02 -10 7 C-4.25 4 -4.25 4 -2 4 C-1.34 2.68 -0.68 1.36 0 0 Z " fill="#484D50" transform="translate(178,138)"/>
<path d="M0 0 C3.02303919 0.21593137 4.36148129 1.27311919 6.8125 3.125 C9 6 9 6 8.8125 9.8125 C8.544375 10.864375 8.27625 11.91625 8 13 C6.25 12.9375 6.25 12.9375 4 12 C-0.52063915 5.15446072 -0.52063915 5.15446072 -1 1 C-0.67 0.67 -0.34 0.34 0 0 Z " fill="#809CB3" transform="translate(123,76)"/>
<path d="M0 0 C0.99 0.33 1.98 0.66 3 1 C3 2.65 3 4.3 3 6 C4.65 6 6.3 6 8 6 C8 6.99 8 7.98 8 9 C1.375 12.125 1.375 12.125 -2 11 C-1.85892253 9.54119891 -1.71197585 8.08296449 -1.5625 6.625 C-1.48128906 5.81289062 -1.40007812 5.00078125 -1.31640625 4.1640625 C-1 2 -1 2 0 0 Z " fill="#4D7496" transform="translate(146,83)"/>
<path d="M0 0 C1.32 0.33 2.64 0.66 4 1 C4 1.99 4 2.98 4 4 C3.34 4 2.68 4 2 4 C1.67 5.32 1.34 6.64 1 8 C-1.31 8.66 -3.62 9.32 -6 10 C-6.66 9.34 -7.32 8.68 -8 8 C-7.625 5.875 -7.625 5.875 -7 4 C-5.68 4 -4.36 4 -3 4 C-2.67 3.34 -2.34 2.68 -2 2 C-1.34 2 -0.68 2 0 2 C0 1.34 0 0.68 0 0 Z M-6 5 C-6.33 5.66 -6.66 6.32 -7 7 C-6.34 7 -5.68 7 -5 7 C-5.33 6.34 -5.66 5.68 -6 5 Z " fill="#73787A" transform="translate(176,134)"/>
<path d="M0 0 C0.33 1.32 0.66 2.64 1 4 C-0.65 4.33 -2.3 4.66 -4 5 C-4 5.66 -4 6.32 -4 7 C-5.65 7.33 -7.3 7.66 -9 8 C-9 7.34 -9 6.68 -9 6 C-8.34 6 -7.68 6 -7 6 C-8.25541557 3.48916886 -9.50063488 3.12874554 -12 2 C-7.8794254 0.00214565 -4.54805635 -0.17835515 0 0 Z " fill="#95AEBF" transform="translate(160,102)"/>
<path d="M0 0 C2.50037734 2.17424117 3.43628586 3.73045798 4 7 C2.68 7 1.36 7 0 7 C0 8.65 0 10.3 0 12 C-2.97 12 -5.94 12 -9 12 C-8.01 9.69 -7.02 7.38 -6 5 C-5.67 5.99 -5.34 6.98 -5 8 C-5.99 9.485 -5.99 9.485 -7 11 C-5.35 11 -3.7 11 -2 11 C-2.66 10.01 -3.32 9.02 -4 8 C-3.625 5.3125 -3.625 5.3125 -3 3 C-2.01 2.67 -1.02 2.34 0 2 C0 1.34 0 0.68 0 0 Z " fill="#95AFC6" transform="translate(117,175)"/>
<path d="M0 0 C0.99 0.33 1.98 0.66 3 1 C2.34 1 1.68 1 1 1 C1 1.99 1 2.98 1 4 C2.03060547 3.65775391 2.03060547 3.65775391 3.08203125 3.30859375 C3.98308594 3.02113281 4.88414063 2.73367187 5.8125 2.4375 C6.70582031 2.14746094 7.59914063 1.85742188 8.51953125 1.55859375 C11 1 11 1 14 2 C11.36 2.99 8.72 3.98 6 5 C6.99 5.99 7.98 6.98 9 8 C6.69 7.67 4.38 7.34 2 7 C2 7.99 2 8.98 2 10 C3.32 10.33 4.64 10.66 6 11 C4.125 11.625 4.125 11.625 2 12 C0 10 0 10 -0.1953125 7.6171875 C-0.17210938 6.71226563 -0.14890625 5.80734375 -0.125 4.875 C-0.10695313 3.96492188 -0.08890625 3.05484375 -0.0703125 2.1171875 C-0.04710938 1.41851562 -0.02390625 0.71984375 0 0 Z " fill="#B5CAD3" transform="translate(106,96)"/>
<path d="M0 0 C0.33 0.66 0.66 1.32 1 2 C2.88764903 2.68472665 2.88764903 2.68472665 5.0625 3.125 C5.79597656 3.29257813 6.52945313 3.46015625 7.28515625 3.6328125 C7.85105469 3.75398438 8.41695312 3.87515625 9 4 C9 4.33 9 4.66 9 5 C7.02 5 5.04 5 3 5 C3.01160156 5.60328125 3.02320313 6.2065625 3.03515625 6.828125 C3.04417969 7.62734375 3.05320313 8.4265625 3.0625 9.25 C3.07410156 10.03890625 3.08570313 10.8278125 3.09765625 11.640625 C3.00385306 13.90691002 2.63241063 15.8288895 2 18 C1.34 18 0.68 18 0 18 C0 12.06 0 6.12 0 0 Z " fill="#497190" transform="translate(179,107)"/>
<path d="M0 0 C1.32 0.33 2.64 0.66 4 1 C4 5.29 4 9.58 4 14 C3.01 14 2.02 14 1 14 C0 13 0 13 -0.09765625 10.05859375 C-0.08605469 8.86363281 -0.07445312 7.66867188 -0.0625 6.4375 C-0.05347656 5.23996094 -0.04445312 4.04242188 -0.03515625 2.80859375 C-0.02355469 1.88175781 -0.01195312 0.95492187 0 0 Z " fill="#45708F" transform="translate(164,93)"/>
<path d="M0 0 C1.32 0.33 2.64 0.66 4 1 C3.67 2.65 3.34 4.3 3 6 C0.03 5.505 0.03 5.505 -3 5 C-2.67 5.66 -2.34 6.32 -2 7 C-1.960008 8.99960012 -1.95653201 11.00047242 -2 13 C-3.65 12.67 -5.3 12.34 -7 12 C-6.30058404 8.85262818 -5.23921302 5.97411124 -4 3 C-1.03 3.495 -1.03 3.495 2 4 C2.33 3.34 2.66 2.68 3 2 C2.01 1.67 1.02 1.34 0 1 C0 0.67 0 0.34 0 0 Z " fill="#95B2C2" transform="translate(153,110)"/>
<path d="M0 0 C2.97 0 5.94 0 9 0 C9.66 1.98 10.32 3.96 11 6 C10.01 6.33 9.02 6.66 8 7 C7.34 6.34 6.68 5.68 6 5 C4.01643517 4.28591666 2.01684563 3.61382258 0 3 C0 2.01 0 1.02 0 0 Z " fill="#587E9B" transform="translate(170,67)"/>
<path d="M0 0 C2.0625 0.4375 2.0625 0.4375 4 1 C3.01 1 2.02 1 1 1 C1 3.64 1 6.28 1 9 C1.66 9.33 2.32 9.66 3 10 C2.01 10.33 1.02 10.66 0 11 C0.33 11.99 0.66 12.98 1 14 C0.0625 16.1875 0.0625 16.1875 -1 18 C-1.33 17.01 -1.66 16.02 -2 15 C-2.99 14.67 -3.98 14.34 -5 14 C-4.34 13.34 -3.68 12.68 -3 12 C-1.55318676 9.10637351 -1.56757624 6.1916991 -1.28125 2.99609375 C-1 1 -1 1 0 0 Z " fill="#9CB2C5" transform="translate(145,96)"/>
<path d="M0 0 C1.98 0.495 1.98 0.495 4 1 C4 1.66 4 2.32 4 3 C4.66 3 5.32 3 6 3 C7.32421875 4.42578125 7.32421875 4.42578125 8.6875 6.3125 C9.14511719 6.92738281 9.60273438 7.54226562 10.07421875 8.17578125 C10.53248047 9.07876953 10.53248047 9.07876953 11 10 C10.67 10.99 10.34 11.98 10 13 C8.68 11.02 7.36 9.04 6 7 C4.68 7.33 3.36 7.66 2 8 C0.4375 5.6875 0.4375 5.6875 -1 3 C-0.67 2.01 -0.34 1.02 0 0 Z " fill="#7393AF" transform="translate(186,183)"/>
<path d="M0 0 C-0.6875 1.875 -0.6875 1.875 -2 4 C-3.2684375 4.495 -3.2684375 4.495 -4.5625 5 C-5.366875 5.33 -6.17125 5.66 -7 6 C-7.88693303 8.04105639 -7.88693303 8.04105639 -8 10 C-8 8.68 -8 7.36 -8 6 C-8.66 6 -9.32 6 -10 6 C-10.33 5.01 -10.66 4.02 -11 3 C-7.14243493 0.84694043 -4.44870215 -0.39253254 0 0 Z " fill="#5981A0" transform="translate(146,182)"/>
<path d="M0 0 C0.61488281 0.0721875 1.22976562 0.144375 1.86328125 0.21875 C3.07564453 0.35796875 3.07564453 0.35796875 4.3125 0.5 C5.51326172 0.63921875 5.51326172 0.63921875 6.73828125 0.78125 C10.49064516 1.16239301 10.49064516 1.16239301 14 0 C13.67 1.32 13.34 2.64 13 4 C11.23186888 4.24915939 9.46025018 4.47366632 7.6875 4.6875 C6.70136719 4.81511719 5.71523437 4.94273437 4.69921875 5.07421875 C2 5 2 5 0.14453125 3.51953125 C-0.42201172 2.76736328 -0.42201172 2.76736328 -1 2 C-0.67 1.34 -0.34 0.68 0 0 Z " fill="#B4C1C9" transform="translate(168,147)"/>
<path d="M0 0 C4.29 0.66 8.58 1.32 13 2 C13 2.99 13 3.98 13 5 C11.04233719 5.08082094 9.08373272 5.13910778 7.125 5.1875 C5.48917969 5.23970703 5.48917969 5.23970703 3.8203125 5.29296875 C2.88960937 5.19628906 1.95890625 5.09960938 1 5 C0.34 4.01 -0.32 3.02 -1 2 C-0.67 1.34 -0.34 0.68 0 0 Z " fill="#4A7191" transform="translate(166,150)"/>
<path d="M0 0 C0.33 0.66 0.66 1.32 1 2 C0.34 2 -0.32 2 -1 2 C-1 4.31 -1 6.62 -1 9 C-1.99 9 -2.98 9 -4 9 C-4 6.69 -4 4.38 -4 2 C-4.99 2 -5.98 2 -7 2 C-7 1.34 -7 0.68 -7 0 C-4.30234372 -1.34882814 -2.84835666 -0.80338265 0 0 Z " fill="#46749A" transform="translate(136,118)"/>
<path d="M0 0 C0.66 0 1.32 0 2 0 C2 0.66 2 1.32 2 2 C2.99 2.33 3.98 2.66 5 3 C4.67 3.99 4.34 4.98 4 6 C4 6.99 4 7.98 4 9 C2.35 9.33 0.7 9.66 -1 10 C-1 9.34 -1 8.68 -1 8 C-0.01 8 0.98 8 2 8 C2 7.34 2 6.68 2 6 C0.68 5.67 -0.64 5.34 -2 5 C-1.125 1.125 -1.125 1.125 0 0 Z " fill="#9FAFC2" transform="translate(111,86)"/>
<path d="M0 0 C0.99 0.33 1.98 0.66 3 1 C3 1.99 3 2.98 3 4 C4.65 4 6.3 4 8 4 C8 4.66 8 5.32 8 6 C6.35 6 4.7 6 3 6 C3 8.64 3 11.28 3 14 C2.67 14 2.34 14 2 14 C2 11.03 2 8.06 2 5 C1.34 5 0.68 5 0 5 C-0.33 5.99 -0.66 6.98 -1 8 C-1.04241723 5.66705225 -1.04092937 3.33297433 -1 1 C-0.67 0.67 -0.34 0.34 0 0 Z " fill="#608096" transform="translate(180,75)"/>
<path d="M0 0 C2.97 0.33 5.94 0.66 9 1 C9 2.65 9 4.3 9 6 C5.7 5.34 2.4 4.68 -1 4 C-0.67 2.68 -0.34 1.36 0 0 Z " fill="#4B7594" transform="translate(147,173)"/>
<path d="M0 0 C0.99 0.33 1.98 0.66 3 1 C1.125 5.875 1.125 5.875 0 7 C-1.99958364 7.04080783 -4.00045254 7.04254356 -6 7 C-4.61990379 3.66476748 -3.15049348 1.81392049 0 0 Z " fill="#60829B" transform="translate(142,77)"/>
<path d="M0 0 C1.65 0.33 3.3 0.66 5 1 C5.33 2.32 5.66 3.64 6 5 C6.66 4.34 7.32 3.68 8 3 C8.99 3.33 9.98 3.66 11 4 C6.25 8 6.25 8 4 8 C4 6.02 4 4.04 4 2 C3.01 2 2.02 2 1 2 C1 3.98 1 5.96 1 8 C0.01 7.67 -0.98 7.34 -2 7 C-1.34 4.69 -0.68 2.38 0 0 Z " fill="#B2C2CE" transform="translate(131,74)"/>
<path d="M0 0 C0.66 0.33 1.32 0.66 2 1 C1.525625 1.7425 1.05125 2.485 0.5625 3.25 C-1.07387895 5.77031353 -1.07387895 5.77031353 -1.34375 7.96875 C-2.2420945 10.74934012 -3.69437464 11.59607118 -6.0625 13.25 C-6.79597656 13.77078125 -7.52945313 14.2915625 -8.28515625 14.828125 C-8.85105469 15.21484375 -9.41695312 15.6015625 -10 16 C-9.34 14.35 -8.68 12.7 -8 11 C-7.34 11 -6.68 11 -6 11 C-5.7525 10.29875 -5.505 9.5975 -5.25 8.875 C-3.83911974 5.62997541 -2.02104602 2.89683263 0 0 Z " fill="#8A8A8A" transform="translate(62,7)"/>
<path d="M0 0 C2.31 0.33 4.62 0.66 7 1 C7 3.31 7 5.62 7 8 C5.35 8.33 3.7 8.66 2 9 C1.67 8.01 1.34 7.02 1 6 C-0.32 6.33 -1.64 6.66 -3 7 C-2.67 7.66 -2.34 8.32 -2 9 C-2.99 8.67 -3.98 8.34 -5 8 C-5 7.01 -5 6.02 -5 5 C2.42857143 4.71428571 2.42857143 4.71428571 6 7 C6 5.35 6 3.7 6 2 C4.35 2 2.7 2 1 2 C0.67 1.34 0.34 0.68 0 0 Z " fill="#A2B6C4" transform="translate(150,172)"/>
<path d="M0 0 C0.33 0 0.66 0 1 0 C1.33 4.29 1.66 8.58 2 13 C0.68 13.33 -0.64 13.66 -2 14 C-2 11.69 -2 9.38 -2 7 C-3.65 7 -5.3 7 -7 7 C-6.67 6.34 -6.34 5.68 -6 5 C-3.03 5.495 -3.03 5.495 0 6 C0 4.02 0 2.04 0 0 Z " fill="#B8C3CB" transform="translate(178,120)"/>
<path d="M0 0 C0.66 0 1.32 0 2 0 C2 4.62 2 9.24 2 14 C1.01 14.33 0.02 14.66 -1 15 C-1.02703381 13.06257659 -1.04641125 11.12504521 -1.0625 9.1875 C-1.07410156 8.10855469 -1.08570313 7.02960938 -1.09765625 5.91796875 C-1 3 -1 3 0 0 Z " fill="#457193" transform="translate(180,80)"/>
<path d="M0 0 C3.44216672 2.6598561 3.99504674 5.90288286 5 10 C4.34 10 3.68 10 3 10 C2.67 9.01 2.34 8.02 2 7 C1.34 7 0.68 7 0 7 C-0.33 10.96 -0.66 14.92 -1 19 C-1.33 19 -1.66 19 -2 19 C-2 14.38 -2 9.76 -2 5 C-1.01 4.67 -0.02 4.34 1 4 C0.67 2.68 0.34 1.36 0 0 Z " fill="#9DB8C9" transform="translate(180,69)"/>
<path d="M0 0 C0.66 0 1.32 0 2 0 C2 0.66 2 1.32 2 2 C1.34 2 0.68 2 0 2 C0 2.66 0 3.32 0 4 C0.66 4 1.32 4 2 4 C1.67 5.32 1.34 6.64 1 8 C1.99 8 2.98 8 4 8 C3.67 8.99 3.34 9.98 3 11 C0.03 10.505 0.03 10.505 -3 10 C-2.69201674 8.51988629 -2.378482 7.04092675 -2.0625 5.5625 C-1.88847656 4.73878906 -1.71445313 3.91507813 -1.53515625 3.06640625 C-1 1 -1 1 0 0 Z " fill="#457296" transform="translate(106,180)"/>
<path d="M0 0 C2.98090266 3.61224665 3.55066068 6.32687112 4 11 C3.34 11 2.68 11 2 11 C1.67 11.66 1.34 12.32 1 13 C0 12 0 12 -0.09765625 9.27734375 C-0.08605469 8.17519531 -0.07445312 7.07304688 -0.0625 5.9375 C-0.05347656 4.83277344 -0.04445312 3.72804688 -0.03515625 2.58984375 C-0.02355469 1.73519531 -0.01195312 0.88054687 0 0 Z " fill="#467091" transform="translate(164,118)"/>
<path d="M0 0 C0.99 0 1.98 0 3 0 C3 0.66 3 1.32 3 2 C3.99 2.33 4.98 2.66 6 3 C4.68 3 3.36 3 2 3 C1.67 5.97 1.34 8.94 1 12 C0.67 11.01 0.34 10.02 0 9 C-0.99 9 -1.98 9 -3 9 C-3 7.68 -3 6.36 -3 5 C-2.01 5 -1.02 5 0 5 C-0.2784375 4.0409375 -0.2784375 4.0409375 -0.5625 3.0625 C-0.706875 2.381875 -0.85125 1.70125 -1 1 C-0.67 0.67 -0.34 0.34 0 0 Z M1 1 C2 3 2 3 2 3 Z " fill="#BCCEDC" transform="translate(129,94)"/>
<path d="M0 0 C1.32 0.66 2.64 1.32 4 2 C4 6 4 6 3.4375 8.125 C2.77180827 10.07591269 2.77180827 10.07591269 4 12 C2.68 11.34 1.36 10.68 0 10 C0.33 7.69 0.66 5.38 1 3 C-0.32 3.33 -1.64 3.66 -3 4 C-2.01 2.68 -1.02 1.36 0 0 Z " fill="#AABDCD" transform="translate(160,182)"/>
<path d="M0 0 C0.66 0.33 1.32 0.66 2 1 C2.1875 4.375 2.1875 4.375 2 8 C1.01 8.66 0.02 9.32 -1 10 C-2 9 -2 9 -2.09765625 7.15234375 C-2.06510417 5.1015625 -2.03255208 3.05078125 -2 1 C-1.34 0.67 -0.68 0.34 0 0 Z " fill="#46484D" transform="translate(173,126)"/>
<path d="M0 0 C0.66 0.66 1.32 1.32 2 2 C3.31747324 2.69748583 4.64914193 3.36959957 6 4 C5.67 4.66 5.34 5.32 5 6 C4.34 6 3.68 6 3 6 C3 5.34 3 4.68 3 4 C2.01 4.33 1.02 4.66 0 5 C0 6.32 0 7.64 0 9 C-0.99 9 -1.98 9 -3 9 C-3.1875 5.625 -3.1875 5.625 -3 2 C-2.01 1.34 -1.02 0.68 0 0 Z " fill="#4B6E8A" transform="translate(129,90)"/>
<path d="M0 0 C1.33332095 2.6666419 0.67102033 4.16680303 0 7 C-0.66 7 -1.32 7 -2 7 C-2 7.66 -2 8.32 -2 9 C-3.98 9.99 -5.96 10.98 -8 12 C-6.49087042 7.01987239 -3.44338151 3.75740058 0 0 Z " fill="#858585" transform="translate(51,23)"/>
<path d="M0 0 C-0.33 0.99 -0.66 1.98 -1 3 C-2.4800841 2.88637738 -3.95910074 2.75877092 -5.4375 2.625 C-6.26121094 2.55539063 -7.08492187 2.48578125 -7.93359375 2.4140625 C-8.61550781 2.27742188 -9.29742187 2.14078125 -10 2 C-10.33 1.34 -10.66 0.68 -11 0 C-6.53464227 -1.86921951 -4.33629181 -2.2956839 0 0 Z " fill="#7091AA" transform="translate(160,97)"/>
<path d="M0 0 C0.33 0 0.66 0 1 0 C1.33 2.97 1.66 5.94 2 9 C0.35 9 -1.3 9 -3 9 C-3.25873987 5.89512156 -3.23307327 4.37494396 -1.5625 1.6875 C-1.046875 1.130625 -0.53125 0.57375 0 0 Z " fill="#7992A9" transform="translate(100,188)"/>
<path d="M0 0 C5.53846154 -0.36923077 5.53846154 -0.36923077 7.875 1.5 C8.24625 1.995 8.6175 2.49 9 3 C8.67 3.66 8.34 4.32 8 5 C6.02 5 4.04 5 2 5 C1.34 3.35 0.68 1.7 0 0 Z " fill="#477192" transform="translate(109,174)"/>
<path d="M0 0 C0.99 0 1.98 0 3 0 C4.4783226 2.95664519 4.06032783 5.74229737 4 9 C3.01 9 2.02 9 1 9 C0.67 6.03 0.34 3.06 0 0 Z " fill="#537390" transform="translate(117,80)"/>
<path d="M0 0 C3.57416264 0.49641148 6.69252492 1.58251068 10 3 C10 3.33 10 3.66 10 4 C7.69 4 5.38 4 3 4 C2.67 4.99 2.34 5.98 2 7 C1.67 5.35 1.34 3.7 1 2 C-0.32 3.32 -1.64 4.64 -3 6 C-1.125 1.125 -1.125 1.125 0 0 Z " fill="#C4C4C4" transform="translate(67,1)"/>
<path d="M0 0 C0.66 0 1.32 0 2 0 C2 2.31 2 4.62 2 7 C2.99 7 3.98 7 5 7 C5 4.69 5 2.38 5 0 C5.66 0.66 6.32 1.32 7 2 C6.625 5.125 6.625 5.125 6 8 C4.35 8 2.7 8 1 8 C0.26919734 6.02253397 -0.39421747 4.01927511 -1 2 C-0.67 1.34 -0.34 0.68 0 0 Z " fill="#ACC8D8" transform="translate(130,120)"/>
<path d="M0 0 C0.66 0 1.32 0 2 0 C2 1.32 2 2.64 2 4 C4.31 3.34 6.62 2.68 9 2 C7.02579865 4.52259061 6.03254358 4.9929808 2.8125 5.6875 C1.4203125 5.8421875 1.4203125 5.8421875 0 6 C0 5.34 0 4.68 0 4 C-0.66 4 -1.32 4 -2 4 C-2 3.34 -2 2.68 -2 2 C-1.34 2 -0.68 2 0 2 C0 1.34 0 0.68 0 0 Z " fill="#9CB4C8" transform="translate(121,87)"/>
<path d="M0 0 C0.66 0 1.32 0 2 0 C2.33 0.99 2.66 1.98 3 3 C2 5 2 5 -0.4375 6.1875 C-3 7 -3 7 -5 6 C-5 5.34 -5 4.68 -5 4 C-5.66 3.67 -6.32 3.34 -7 3 C-5.5459375 2.814375 -5.5459375 2.814375 -4.0625 2.625 C-2.5465625 2.315625 -2.5465625 2.315625 -1 2 C-0.67 1.34 -0.34 0.68 0 0 Z " fill="#6185A4" transform="translate(182,148)"/>
<path d="M0 0 C0.33 0.66 0.66 1.32 1 2 C2.98 1.67 4.96 1.34 7 1 C7.33 2.65 7.66 4.3 8 6 C7.01 6 6.02 6 5 6 C5 5.34 5 4.68 5 4 C3.35 4 1.7 4 0 4 C0 2.68 0 1.36 0 0 Z " fill="#A0B2C2" transform="translate(149,85)"/>
<path d="M0 0 C0.99 0 1.98 0 3 0 C3 1.32 3 2.64 3 4 C3.99 4 4.98 4 6 4 C6 5.32 6 6.64 6 8 C4.35 8.33 2.7 8.66 1 9 C1.33 6.36 1.66 3.72 2 1 C1.34 0.67 0.68 0.34 0 0 Z " fill="#C2CFD9" transform="translate(135,95)"/>
<path d="M0 0 C0.33 0 0.66 0 1 0 C1 1.65 1 3.3 1 5 C0.34 5 -0.32 5 -1 5 C-1 9.62 -1 14.24 -1 19 C-1.33 19 -1.66 19 -2 19 C-2.05394705 16.39555652 -2.09364469 13.79223002 -2.125 11.1875 C-2.14175781 10.44951172 -2.15851563 9.71152344 -2.17578125 8.95117188 C-2.21074628 5.08753574 -2.19397555 3.29096332 0 0 Z " fill="#AEC3D1" transform="translate(165,70)"/>
<path d="M0 0 C0.33 0 0.66 0 1 0 C1.1953125 2.05078125 1.390625 4.1015625 1.5859375 6.15234375 C1.72257813 6.76207031 1.85921875 7.37179688 2 8 C2.66 8.33 3.32 8.66 4 9 C4 9.99 4 10.98 4 12 C2.68 12 1.36 12 0 12 C-1.53166168 7.91556885 -0.63081652 4.20544343 0 0 Z " fill="#6A87A2" transform="translate(182,123)"/>
<path d="M0 0 C1.65 0 3.3 0 5 0 C4.34 1.32 3.68 2.64 3 4 C3.99 4.99 4.98 5.98 6 7 C5.67 7.66 5.34 8.32 5 9 C2.5 6.75 2.5 6.75 0 4 C0 2.68 0 1.36 0 0 Z " fill="#9AB2C1" transform="translate(135,111)"/>
<path d="M0 0 C0.66 0.99 1.32 1.98 2 3 C-0.97 5.475 -0.97 5.475 -4 8 C-4 4.09161134 -2.49432124 2.88405893 0 0 Z " fill="#7D7D7D" transform="translate(25,58)"/>
<path d="M0 0 C0 0.66 0 1.32 0 2 C0.66 2 1.32 2 2 2 C1.67 2.66 1.34 3.32 1 4 C-1.64 3.67 -4.28 3.34 -7 3 C-7 2.34 -7 1.68 -7 1 C-2.25 0 -2.25 0 0 0 Z " fill="#427199" transform="translate(121,188)"/>
<path d="M0 0 C0.33 0 0.66 0 1 0 C1 2.97 1 5.94 1 9 C2.65 9 4.3 9 6 9 C6 9.33 6 9.66 6 10 C3.36 10.66 0.72 11.32 -2 12 C-1.34 8.04 -0.68 4.08 0 0 Z " fill="#607F96" transform="translate(182,112)"/>
<path d="M0 0 C2.31 0.33 4.62 0.66 7 1 C7 1.66 7 2.32 7 3 C5.02 3.99 3.04 4.98 1 6 C0.67 4.02 0.34 2.04 0 0 Z " fill="#8DA8BB" transform="translate(137,90)"/>
<path d="M0 0 C0.99 0.33 1.98 0.66 3 1 C2.67 2.32 2.34 3.64 2 5 C-0.64 4.67 -3.28 4.34 -6 4 C-6 3.67 -6 3.34 -6 3 C-4.02 2.67 -2.04 2.34 0 2 C0 1.34 0 0.68 0 0 Z " fill="#B1CBD4" transform="translate(164,194)"/>
<path d="M0 0 C2.01822917 0.06510417 4.03645833 0.13020833 6.0546875 0.1953125 C6.0546875 0.8553125 6.0546875 1.5153125 6.0546875 2.1953125 C2.47823902 3.4333139 -0.28226016 2.94457321 -3.9453125 2.1953125 C-1.9453125 0.1953125 -1.9453125 0.1953125 0 0 Z " fill="#4D708F" transform="translate(180.9453125,189.8046875)"/>
<path d="M0 0 C0.66 0 1.32 0 2 0 C4.04169485 2.90548882 5 4.40142046 5 8 C4.401875 7.38125 3.80375 6.7625 3.1875 6.125 C0.99188856 3.86323046 0.99188856 3.86323046 -2 2 C-1.34 1.34 -0.68 0.68 0 0 Z " fill="#A6C1D2" transform="translate(145,184)"/>
<path d="M0 0 C0.99 0.33 1.98 0.66 3 1 C3 2.98 3 4.96 3 7 C2.01 7 1.02 7 0 7 C0 4.69 0 2.38 0 0 Z " fill="#4E6E89" transform="translate(132,120)"/>
<path d="M0 0 C1.32 0.33 2.64 0.66 4 1 C3.67 2.65 3.34 4.3 3 6 C2.01 6 1.02 6 0 6 C0 4.02 0 2.04 0 0 Z " fill="#597C95" transform="translate(117,117)"/>
<path d="M0 0 C3 1 3 1 5 2 C5 2.66 5 3.32 5 4 C2.69 4 0.38 4 -2 4 C-1.34 2.68 -0.68 1.36 0 0 Z " fill="#5483A7" transform="translate(120,106)"/>
<path d="M0 0 C0.99 0 1.98 0 3 0 C3 2.31 3 4.62 3 7 C2.01 6.67 1.02 6.34 0 6 C0 4.02 0 2.04 0 0 Z " fill="#4F718D" transform="translate(132,76)"/>
<path d="M0 0 C0.66 0 1.32 0 2 0 C1.67 1.65 1.34 3.3 1 5 C-0.65 5 -2.3 5 -4 5 C-3.67 4.34 -3.34 3.68 -3 3 C-2.34 3 -1.68 3 -1 3 C-0.67 2.01 -0.34 1.02 0 0 Z " fill="#4A6F8E" transform="translate(173,192)"/>
<path d="M0 0 C0 3.44118336 -0.68964993 5.82757352 -2 9 C-2.99 9.33 -3.98 9.66 -5 10 C-3.84414715 6.08788267 -2.64465038 3.1254959 0 0 Z " fill="#A5B9C5" transform="translate(174,186)"/>
<path d="M0 0 C2.31 0.33 4.62 0.66 7 1 C7 1.66 7 2.32 7 3 C4.69 3 2.38 3 0 3 C0 2.01 0 1.02 0 0 Z " fill="#4F7696" transform="translate(108,103)"/>
<path d="M0 0 C0.33 0 0.66 0 1 0 C1.33 3.3 1.66 6.6 2 10 C1.34 10 0.68 10 0 10 C-0.74926071 6.33694766 -1.2380014 3.57644848 0 0 Z " fill="#D7D7D7" transform="translate(236,215)"/>
<path d="M0 0 C1.42944945 2.35438733 2.08661261 3.48032433 1.625 6.25 C1.41875 6.8275 1.2125 7.405 1 8 C0.34 7.67 -0.32 7.34 -1 7 C-1.04254356 5.00045254 -1.04080783 2.99958364 -1 1 C-0.67 0.67 -0.34 0.34 0 0 Z " fill="#467090" transform="translate(161,139)"/>
<path d="M0 0 C0.66 0 1.32 0 2 0 C0.25 5.75 0.25 5.75 -2 8 C-2 6.02 -2 4.04 -2 2 C-1.34 2 -0.68 2 0 2 C0 1.34 0 0.68 0 0 Z " fill="#799DB2" transform="translate(166,129)"/>
<path d="M0 0 C1.98 0.495 1.98 0.495 4 1 C4 1.99 4 2.98 4 4 C2.35 4 0.7 4 -1 4 C-0.67 2.68 -0.34 1.36 0 0 Z " fill="#4377A0" transform="translate(123,104)"/>
<path d="M0 0 C1.5 1.3125 1.5 1.3125 3 3 C3 3.99 3 4.98 3 6 C1.68 6.33 0.36 6.66 -1 7 C-1.33 6.34 -1.66 5.68 -2 5 C-1.34 5 -0.68 5 0 5 C0 3.35 0 1.7 0 0 Z " fill="#5B819E" transform="translate(135,89)"/>
<path d="M0 0 C1.65 0 3.3 0 5 0 C4.67 1.32 4.34 2.64 4 4 C2.68 3.67 1.36 3.34 0 3 C0 2.01 0 1.02 0 0 Z " fill="#52748F" transform="translate(170,67)"/>
<path d="" fill="#FFFFFF" transform="translate(0,0)"/>
<path d="" fill="#FFFFFF" transform="translate(0,0)"/>
<path d="" fill="#FFFFFF" transform="translate(0,0)"/>
<path d="" fill="#FFFFFF" transform="translate(0,0)"/>
<path d="" fill="#FFFFFF" transform="translate(0,0)"/>
<path d="" fill="#FFFFFF" transform="translate(0,0)"/>
<path d="" fill="#FFFFFF" transform="translate(0,0)"/>
<path d="" fill="#FFFFFF" transform="translate(0,0)"/>
<path d="" fill="#FFFFFF" transform="translate(0,0)"/>
<path d="" fill="#FFFFFF" transform="translate(0,0)"/>
<path d="" fill="#FFFFFF" transform="translate(0,0)"/>
<path d="" fill="#FFFFFF" transform="translate(0,0)"/>
<path d="" fill="#FFFFFF" transform="translate(0,0)"/>
<path d="" fill="#FFFFFF" transform="translate(0,0)"/>
<path d="" fill="#FFFFFF" transform="translate(0,0)"/>
</svg>
